<svg xmlns="http://www.w3.org/2000/svg" viewBox="0 0 512.001 512.001"><path d="M453.566 387.773v67.318c0 31.43-88.452 56.91-197.565 56.91S58.436 486.521 58.436 455.09v-67.317h395.13z" fill="#874d20"/><path d="M256.001 459.754c-109.113 0-197.565-32.227-197.565-71.982s88.452-71.982 197.565-71.982 197.565 32.227 197.565 71.982-88.452 71.982-197.565 71.982z" fill="#ba9052"/><path d="M254.364 215.453a179.962 179.962 0 0 1-18.92 1.004c-97.764 0-177.01-78.987-177.01-176.427 0-13.411 1.512-26.47 4.355-39.026A179.726 179.726 0 0 1 81.71 0c97.759 0 177.007 78.988 177.007 176.429 0 13.411-1.509 26.47-4.353 39.024z" fill="#b1cd3e"/><path d="M443.162 1.004a176.452 176.452 0 0 1 4.352 39.026c0 97.44-79.248 176.429-177.006 176.429-6.393 0-12.702-.346-18.92-1.004a176.452 176.452 0 0 1-4.355-39.026C247.234 78.987 326.479 0 424.243 0c6.391 0 12.702.346 18.919 1.004z" fill="#7e9822"/><path d="M358.675 110.618L266.02 218.81v163.079c0 5.537-4.484 10.025-10.017 10.025-5.533 0-10.017-4.488-10.017-10.025V218.985l-98.505-108.137c-3.728-4.092-3.434-10.433.653-14.162 4.088-3.731 10.425-3.438 14.151.654l93.487 102.626 87.692-102.397c3.598-4.204 9.924-4.691 14.125-1.087 4.199 3.602 4.687 9.931 1.086 14.136z" fill="#677c0f"/><path d="M215.58 398.181c5.13-17.419 21.283-30.143 40.422-30.143 19.137 0 35.292 12.724 40.422 30.143H215.58z" fill="#874d20"/></svg>