<svg xmlns="http://www.w3.org/2000/svg" width="100" height="100" viewBox="0 0 100 100"><path fill-rule="evenodd" clip-rule="evenodd" d="M51.038 5.016c-.496 4.55.886 8.431 3.368 12.083 3.485-4.478 7.968-7.272 13.749-8.249-2.177 4.006-2.39 8.12-1.49 12.445 4.989-2.833 10.218-3.661 15.868-2.366-3.543 2.853-5.323 6.583-6.152 10.939 5.685-.724 10.845.515 15.575 3.876-4.354 1.269-7.438 4.023-9.852 7.742 5.495 1.527 9.775 4.614 12.873 9.545-2.819-.282-5.437.045-7.91 1.122-1.424.618-2.774 1.403-4.274 2.173 4.623 3.593 7.396 8.085 8.357 13.838-4.017-2.192-8.131-2.396-12.442-1.488 2.85 5.004 3.66 10.224 2.365 15.874-1.604-2.036-3.509-3.562-5.793-4.531-1.624-.689-3.326-1.188-5.157-1.83.729 5.875-.485 11.044-3.865 15.775-.748-2.664-2.071-4.921-3.975-6.796-1.128-1.111-2.398-2.078-3.721-3.21-.789 2.836-1.91 5.291-3.528 7.501-1.614 2.206-3.627 3.976-6.048 5.524.17-2.252.064-4.355-.584-6.4-.637-2.013-1.571-3.878-2.813-5.666-3.494 4.494-7.984 7.276-13.74 8.245 1.071-2.003 1.716-4.006 1.904-6.135.188-2.104.068-4.189-.438-6.303-4.977 2.827-10.201 3.65-15.859 2.355 1.741-1.4 3.092-3.013 4.105-4.907 1-1.867 1.639-3.853 2.052-6.019-5.665.702-10.832-.514-15.565-3.888 4.334-1.26 7.413-4.015 9.86-7.738-5.491-1.517-9.773-4.604-12.887-9.552 4.529.484 8.428-.884 12.071-3.378-4.489-3.48-7.272-7.971-8.246-13.744 4.008 2.173 8.123 2.393 12.443 1.485-2.842-4.977-3.66-10.199-2.375-15.867 1.404 1.739 3.012 3.083 4.893 4.092 1.881 1.009 3.883 1.652 6.045 2.053-.707-5.668.516-10.816 3.881-15.558 1.279 4.344 4.031 7.44 7.743 9.851.923-3.303 2.403-6.246 4.642-8.779 1.384-1.565 2.976-2.89 4.92-4.114zm-26.171 44.93c0 13.884 11.213 25.157 24.99 25.203 13.914.046 25.066-11.108 25.275-24.707.218-14.226-11.192-25.362-24.677-25.574-14.268-.224-25.62 11.334-25.588 25.078z"/></svg>