<?xml version="1.0" standalone="no"?>
<!DOCTYPE svg PUBLIC "-//W3C//DTD SVG 1.1//EN" "http://www.w3.org/Graphics/SVG/1.1/DTD/svg11.dtd" >
<svg xmlns="http://www.w3.org/2000/svg">
<metadata>Generated by IcoMoon</metadata>
<defs>
<font id="icomoon" horiz-adv-x="1024">
<font-face units-per-em="1024" ascent="960" descent="-64" />
<missing-glyph horiz-adv-x="1024" />
<glyph unicode="&#x20;" horiz-adv-x="512" d="" />
<glyph unicode="&#xe600;" glyph-name="add-l" d="M805.149 435.166c0-159.346-129.644-288.974-288.954-288.974-1.428 0-2.813-0.311-4.189-0.426-1.438 0.115-2.791 0.426-4.221 0.436-159.344-0.010-288.958 129.618-288.958 288.964 0 3.783-0.432 7.477-1.103 11.048 0.671 3.599 1.103 7.273 1.103 11.076 0 159.318 129.6 288.95 288.958 288.95 1.43 0 2.803 0.329 4.213 0.422 1.408-0.093 2.779-0.422 4.197-0.422 159.31 0 288.954-129.632 288.954-288.95 0-3.791 0.426-7.477 1.113-11.076-0.687-3.571-1.113-7.265-1.113-11.048zM921.97 457.274c-0.012 223.737-182.046 405.76-405.775 405.76-1.428 0-2.813-0.331-4.197-0.426-1.43 0.095-2.789 0.426-4.213 0.426-223.735 0-405.756-182.022-405.756-405.76 0-3.787 0.426-7.461 1.101-11.060-0.675-3.593-1.101-7.265-1.101-11.060 0-223.737 182.020-405.76 405.756-405.76 1.43 0 2.803 0.317 4.213 0.426 1.408-0.097 2.779-0.426 4.197-0.438 223.757 0.012 405.763 182.034 405.763 405.771 0.012 3.783-0.44 7.467-1.105 11.048 0.677 3.599 1.105 7.285 1.117 11.072zM688.495 506.567h-119.069v116.156c0 32.247-25.717 58.398-57.974 58.414-32.255-0.016-57.972-26.166-57.972-58.414v-116.156l-118.002 0.012c-32.245-0.012-58.4-25.719-58.386-57.974-0.014-32.271 26.141-57.972 58.396-57.972h117.992v-120.913c0-32.259 25.717-58.398 57.972-58.398 32.269 0 57.974 26.139 57.974 58.398v120.913l119.069 0.012c32.255 0 58.386 25.705 58.396 57.948 0 32.267-26.151 57.986-58.396 57.974z" />
<glyph unicode="&#xe601;" glyph-name="alert-off-l" d="M570.764 790.142v26.452c0 35.379-28.704 64.102-64.1 64.102-35.4 0-64.108-28.723-64.108-64.102v-26.452c-225.827-36.27-235.053-262.023-235.053-262.023v-234.831l456.229 466.158c-25.994 13.954-56.566 24.859-92.968 30.696zM421.182 100.774c0-47.227 38.27-85.469 85.481-85.469 47.195 0 85.471 38.243 85.471 85.469v21.361h-170.953zM805.812 528.119c0 0-2.634 64.088-39.235 129.444l167.441 169.709-53.424 53.424-160.322-162.479c-0.257 0.248-0.545 0.487-0.784 0.721l-268.092-273.232-361.409-366.301 53.416-53.424 126.499 128.206h621.38v53.406l-85.469 96.155z" />
<glyph unicode="&#xe602;" glyph-name="alert-on-l" d="M807.002 302.75v225.367c0 0-9.224 225.755-235.051 262.023v26.452c0 35.379-28.71 64.102-64.106 64.102-0.149 0-0.293-0.008-0.442-0.008-0.145 0-0.291 0.008-0.44 0.008-0.018 0-0.036-0.002-0.051-0.002s-0.034 0.002-0.051 0.002c-0.147 0-0.293-0.008-0.44-0.008-0.149 0-0.291 0.008-0.442 0.008-35.396 0-64.106-28.723-64.106-64.102v-26.452c-225.825-36.268-235.051-262.023-235.051-262.023v-225.367l-84.584-95.157v-53.412h769.347v53.412zM421.488 122.131h-0.097v-21.361c0-47.223 38.274-85.471 85.471-85.471 0.016 0 0.036 0.004 0.051 0.004s0.032-0.004 0.050-0.004c47.197 0 85.475 38.248 85.475 85.471v21.361h-0.099z" />
<glyph unicode="&#xe603;" glyph-name="audio-l" d="M335.449 445.671c8.796-0.026 15.934 7.398 15.96 16.59 0.044 9.172-7.073 16.616-15.855 16.679-1.070 0-2.082-0.263-3.125-0.333v-33.218c0.973 0.149 1.967 0.281 3.021 0.281zM351.409 388.921c-0.008 9.184-7.144 16.64-15.93 16.588v0.034c-1.044 0-2.078 0.147-3.050 0.333l-0.016-33.251c1.012-0.077 2.022-0.337 3.066-0.337 8.836 0.018 15.93 7.499 15.93 16.634zM886.383 582.184c22.112-8.4 41.984-21.569 58.303-38.603 28.935-30.199 46.773-71.803 46.773-117.938 0-46.094-17.873-87.729-46.817-117.932-16.321-17.018-36.175-30.197-58.247-38.623v-33.047c0-0.719-0.19-1.377-0.214-2.131 30.972 9.614 58.748 27.058 80.983 50.299 34.673 36.121 56.152 86.258 56.171 141.435-0.020 55.213-21.478 105.292-56.094 141.459-22.251 23.203-50.041 40.647-81.078 50.202 0.042-0.741 0.232-1.422 0.232-2.169zM784.232 266.271c-25.079 8.115-47.462 22.5-65.613 41.414-28.918 30.197-46.747 71.771-46.747 117.867 0 46.149 17.846 87.749 46.813 117.99 18.117 18.87 40.485 33.281 65.524 41.368v30.225c-0.012 1.428 0.303 2.783 0.442 4.153-34.012-8.955-64.5-27.21-88.488-52.25-2.599-2.668-4.908-5.599-7.322-8.426 7.451-0.695 13.637-6.837 14.393-14.879 0.887-9.109-5.508-17.234-14.203-18.204l-24.693-2.611c-15.439-28.844-24.332-62.036-24.332-97.367 0-35.826 9.161-69.414 24.97-98.565l24.055-2.605c8.747-0.969 15.091-9.153 14.138-18.256-0.743-7.659-6.453-13.532-13.466-14.661 2.113-2.458 4.159-5.005 6.392-7.352l0.069-0.040c23.988-25.059 54.476-43.262 88.508-52.192-0.166 1.384-0.438 2.755-0.438 4.193zM869.191 621.791c-3.953 11.214-17.537 19.513-33.845 19.563-15.776 0-28.916-7.762-33.428-18.369 9.749 1.6 19.644 2.66 29.787 2.66 12.825 0 25.374-1.404 37.486-3.854zM816.066 591.567c-5.401-0.549-10.696-1.361-15.919-2.47l0.016-327.015c5.221-1.083 10.521-1.888 15.911-2.442zM784.209 584.909l0.024-318.638c5.183-1.686 10.497-3.030 15.93-4.187l0.004 327.013c-5.413-1.115-10.751-2.519-15.958-4.187zM854.549 260.743c5.411 0.818 10.723 1.89 15.934 3.262l-0.028 323.259c-5.219 1.386-10.496 2.412-15.907 3.217zM886.395 269.118l-0.012 313.067c-5.219 1.947-10.496 3.636-15.926 5.080l0.028-323.259c5.415 1.436 10.739 3.133 15.911 5.112zM801.973 228.197c4.498-10.545 17.624-18.264 33.374-18.264 16.382-0.050 29.95 8.293 33.891 19.533-12.181-2.515-24.774-3.906-37.595-3.906-10.139 0-19.975 1.072-29.67 2.636zM835.346 641.354c16.279-0.109 29.892-8.348 33.845-19.563 5.772-1.212 11.401-2.733 16.97-4.488-0.596 9.876-4.94 18.594-10.967 24.778-10.151 10.45-24.376 15.74-39.849 15.907v-0.038c-15.562-0.046-29.783-5.387-39.942-15.829-5.613-5.789-9.687-13.827-10.755-22.833 5.669 1.501 11.444 2.708 17.269 3.698 4.51 10.606 17.652 18.369 33.428 18.369zM869.238 229.466c-3.942-11.24-17.509-19.583-33.891-19.531-15.715 0.014-28.874 7.717-33.374 18.262-5.881 0.982-11.617 2.216-17.303 3.684 1.072-8.873 5.070-16.788 10.614-22.546l0.101-0.109c10.185-10.488 24.398-15.855 39.962-15.905 15.497 0.121 29.698 5.379 39.879 15.835 6.013 6.14 10.369 14.956 10.957 24.752-5.591-1.684-11.209-3.211-16.945-4.443zM784.209 584.909c5.207 1.668 10.545 3.072 15.938 4.187v26.012c0 2.781 0.743 5.362 1.771 7.877-5.849-0.99-11.617-2.197-17.267-3.672-0.149-1.365-0.454-2.751-0.454-4.179zM800.166 236.074l-0.004 26.010c-5.431 1.157-10.747 2.504-15.93 4.187v-30.171c0-1.436 0.271-2.791 0.418-4.189 5.706-1.497 11.442-2.729 17.323-3.714-1.064 2.529-1.787 5.112-1.806 7.877zM870.456 615.108v-27.844c5.431-1.442 10.767-3.108 15.938-5.106v32.95c0 0.767-0.206 1.454-0.214 2.195-5.589 1.729-11.218 3.242-16.99 4.437 0.755-2.113 1.266-4.316 1.266-6.631zM886.395 269.118c-5.171-1.979-10.496-3.676-15.911-5.112v-27.933c0-2.311-0.539-4.472-1.246-6.607 5.736 1.234 11.353 2.759 16.945 4.445 0.057 0.727 0.212 1.412 0.212 2.131zM870.484 264.006c-5.211-1.341-10.521-2.444-15.934-3.262v-24.703c-0.012-0.537-0.101-1.474-1.842-3.421-2.567-2.846-9.234-6.134-17.36-6.039-8.117-0.133-14.813 3.193-17.408 6.091-1.729 1.927-1.834 2.872-1.866 3.401v23.568c-5.387 0.555-10.676 1.357-15.907 2.442v-26.010c0-2.763 0.743-5.374 1.818-7.875 9.699-1.577 19.519-2.636 29.66-2.636 12.819 0 25.412 1.39 37.593 3.906 0.709 2.133 1.246 4.276 1.246 6.605zM816.074 615.133c0.061 0.677 0.151 1.596 1.864 3.498 2.597 2.898 9.238 6.223 17.37 6.069 8.135 0.097 14.797-3.197 17.4-6.069 1.725-1.927 1.818-2.82 1.842-3.498v-24.627c5.411-0.83 10.723-1.905 15.934-3.24v27.868c0 2.317-0.539 4.494-1.293 6.657-12.112 2.502-24.649 3.856-37.484 3.856-10.145 0-20.024-1.062-29.734-2.662-1.064-2.49-1.806-5.069-1.806-7.851v-26.018c5.203 1.091 10.499 1.901 15.907 2.484zM324.977 411.414c-3.496 3.722-5.593 8.612-5.574 14.138 0 5.732 2.151 10.608 5.619 14.273 2.856 2.955 6.451 4.884 10.525 5.542l0.014 33.241c-12.876-0.792-24.552-6.384-33.053-15.281-5.558-5.797-9.654-13.084-12.207-21.102l13.156 0.014v-0.014c8.812 0.014 15.926-7.424 15.946-16.636 0.002-9.19-7.144-16.634-15.946-16.634h-13.156c2.531-7.972 6.607-15.261 12.167-21.056l0.040-0.051c8.515-8.873 20.242-14.445 33.053-15.223v33.249c-4.118 0.644-7.717 2.628-10.585 5.54zM161.83 142.122c-4.377 0-8.366 1.864-11.246 4.87-2.71 2.86-4.342 6.76-4.51 11.062-0.069-0.497-0.279-0.887-0.307-1.404 0-5.597-2.090-10.499-5.631-14.209-3.5-3.638-8.224-5.873-13.617-5.873-5.33 0-10.052 2.21-13.571 5.843-3.478 3.688-5.605 8.642-5.605 14.207l0.051 542.884c0 0.976-0.372 1.84-0.543 2.751-0.331-8.846-7.235-16.002-15.821-16.002-7.861 0-14.108 6.083-15.382 13.859 0-0.212-0.117-0.378-0.143-0.62l-0.046-542.873c-0.008-14.605 5.708-28.078 14.964-37.706l0.051-0.081c9.196-9.582 22.051-15.548 36.070-15.548 14.094 0.024 26.901 6.055 36.111 15.669 9.194 9.588 14.942 22.978 15.007 37.615 0 0.281-0.154 0.517-0.154 0.804-0.719-8.539-7.35-15.275-15.679-15.249zM91.44 716.104c7.883 0 14.118-6.037 15.447-13.851 0 0.198 0.091 0.376 0.091 0.574l-0.020 0.071c0.044 14.649-5.671 28.135-14.902 37.773-9.204 9.614-22.15 15.653-36.28 15.55-13.934 0-26.782-5.97-35.998-15.58-9.204-9.582-14.958-23.051-15-37.743l-0.006-277.31c-0.024-4.557 1.792-8.725 4.676-11.706 2.85-3.024 6.817-4.876 11.24-4.914 8.772 0 15.877 7.429 15.905 16.62l0.055 277.31c0.040 5.661 2.185 10.583 5.661 14.245 3.514 3.646 8.182 5.837 13.554 5.837 5.415 0 10.070-2.165 13.637-5.837 3.482-3.662 5.615-8.622 5.615-14.279 0-0.988 0.345-1.85 0.531-2.755 0.349 8.897 7.229 15.994 15.794 15.994zM91.029 686.252c8.616 0 15.509 7.118 15.859 16.002-1.329 7.814-7.564 13.851-15.447 13.851-8.564 0-15.445-7.097-15.794-15.994 1.309-7.776 7.521-13.859 15.382-13.859zM231.723 718.843c8.83 0.026 15.952-7.449 15.915-16.628v-1.551c0.109 0.658 0.416 1.252 0.404 1.915l-0.014 0.026c0.014 14.655-5.758 28.090-14.966 37.678-9.186 9.594-22.037 15.6-36.101 15.6-14.001 0.026-26.891-5.95-36.084-15.588-9.234-9.574-14.954-23.015-14.984-37.69l0.030-543.835c0-0.269 0.137-0.475 0.151-0.717 0.719 8.483 7.372 15.231 15.659 15.172 8.539 0 15.4-7.045 15.774-15.855 0.053 0.454 0.259 0.889 0.259 1.367v543.843c0 5.673 2.131 10.557 5.631 14.235 3.512 3.636 8.174 5.853 13.593 5.853 5.286 0 10.006-2.24 13.562-5.912 3.284-3.44 5.245-7.984 5.542-13.078 0.713 8.483 7.33 15.192 15.629 15.166zM161.733 173.226c-8.297 0.034-14.94-6.689-15.659-15.172 0.168-4.302 1.777-8.202 4.51-11.062 2.88-3.007 6.869-4.87 11.246-4.87 8.329 0.014 14.96 6.71 15.677 15.249-0.374 8.808-7.235 15.855-15.774 15.855zM290.323 442.238h-42.685l0.038 258.428c-0.986-8.224-7.414-14.683-15.562-14.683-8.78 0.032-15.919 7.469-15.913 16.647-0.006 0.353-0.107 0.658-0.107 1.046-0.038-0.497-0.25-0.943-0.295-1.424v-276.638c-0.006-4.383 1.717-8.667 4.676-11.755 2.949-3.090 7.085-4.89 11.248-4.851l58.578-0.040c-1.664 5.292-2.801 10.826-2.801 16.645 0.038 5.809 1.153 11.345 2.822 16.624zM319.383 425.59c0 9.21-7.113 16.647-15.926 16.634v0.014h-13.156c-1.648-5.278-2.801-10.814-2.763-16.622-0.038-5.845 1.101-11.355 2.763-16.647l13.156-0.012c8.786 0.012 15.95 7.481 15.926 16.634zM232.114 685.985c8.148 0 14.558 6.459 15.524 14.681v1.551c0.036 9.178-7.085 16.653-15.915 16.628-8.301 0.026-14.918-6.683-15.629-15.166 0-0.39 0.101-0.695 0.107-1.072-0.036-9.172 7.101-16.622 15.913-16.622zM694.085 525.555c6.916 0.945 11.997 9.069 11.288 18.178-0.6 8.067-5.524 14.183-11.434 14.877-7.424-10.896-14.007-22.817-19.502-35.691zM705.327 306.153c0.755 9.101-4.286 17.303-11.238 18.228l-0.004 0.028-19.098 2.616c5.524-12.805 12.149-24.671 19.636-35.541 5.574 1.109 10.087 6.982 10.703 14.669zM347.505 462.261c-0.028-9.192-5.708-16.616-12.692-16.59-0.826 0-1.616-0.133-2.401-0.305l0.012-19.048c0 9.161 5.663 16.602 12.643 16.602 6.978 0 12.65-7.424 12.65-16.602l0.016 54.219 316.735 42.382c5.463 12.849 12.054 24.798 19.478 35.693-0.812 0.071-1.594 0.107-2.44 0l-347.726-46.514c-6.467-0.868-11.355-7.998-11.355-16.533v-16.958c0.828 0.069 1.626 0.333 2.484 0.333 6.978-0.063 12.633-7.507 12.597-16.679zM357.741 370.735v55.581l-0.008-1.357c-0.016-9.141-5.686-16.59-12.666-16.59-3.484 0-6.659 1.852-8.941 4.857-2.304 3.032-3.702 7.168-3.702 11.771v1.319-20.442c0.806-0.16 1.594-0.333 2.438-0.333h-0.016c6.984 0 12.658-7.437 12.658-16.62 0.024-9.153-5.637-16.616-12.643-16.636-0.832 0-1.62 0.261-2.438 0.339v-16.857c0-4.563 1.398-8.693 3.702-11.72 1.985-2.605 4.631-4.411 7.62-4.805l347.695-47.898c1.101-0.135 2.153-0.051 3.183 0.139-7.475 10.884-14.112 22.738-19.636 35.543zM694.634 309.267l-4.445 10.896-15.722 38.643-7.875 67.513 14.015 77.464 14.027 37.017-347.13-39.051v-142.942l332.964-43.353zM373.946 384.609c-0.456 0.953-41.519 2.383-41.519 2.383v69.634l42.376-6.298z" />
<glyph unicode="&#xe604;" glyph-name="bong-1-l" d="M490.529 433.135v374.204c24.241 0 43.901 19.686 43.901 43.893 0 24.255-19.66 43.905-43.901 43.905h-228.304c-24.239 0-43.879-19.65-43.879-43.905 0-24.208 19.64-43.893 43.879-43.893v-374.204c-23.312-12.643-44.157-29.199-62.032-48.534l-43.258 43.347-18.707 72.383-0.212-0.228c-1.087 2.753-2.688 5.302-4.861 7.523-8.614 8.592-22.482 8.592-31.075 0l-80.7-80.72c-8.568-8.572-8.568-22.486 0-31.031 2.22-2.222 4.793-3.846 7.546-4.91 1.464-0.576 3.015-0.971 4.563-1.198l67.594-17.671 54.924-55.023c-12.595-29.175-19.658-61.291-19.658-95.101 0-132.546 107.492-240.040 240.038-240.040 132.55 0 239.992 107.494 239.992 240.040 0.022 91.261-50.899 170.568-125.851 211.164zM703.068 670.555v-428.135l168.635 214.054zM702.576 861.859v-86.559l251.532-319.29-251.532-319.284v-86.573l319.722 405.857z" />
<glyph unicode="&#xe605;" glyph-name="bong-2-l" d="M520.193 433.132v374.21c24.239 0 43.899 19.682 43.899 43.887 0 24.255-19.66 43.907-43.899 43.907h-228.304c-24.239 0-43.879-19.652-43.879-43.907 0-24.206 19.64-43.887 43.879-43.887v-374.21c-23.314-12.643-44.157-29.203-62.032-48.534l-43.258 43.351-18.709 72.383-0.21-0.232c-1.089 2.757-2.688 5.302-4.861 7.526-8.616 8.588-22.484 8.588-31.077 0l-80.7-80.724c-8.568-8.568-8.568-22.482 0-31.029 2.22-2.22 4.793-3.84 7.548-4.908 1.462-0.58 3.013-0.971 4.563-1.206l67.592-17.667 54.926-55.015c-12.595-29.183-19.66-61.295-19.66-95.105 0-132.55 107.494-240.040 240.040-240.040 132.548 0 239.99 107.49 239.99 240.040 0.024 91.257-50.897 170.572-125.849 211.16zM732.731 671.035v-428.135l168.635 214.054z" />
<glyph unicode="&#xe606;" glyph-name="calendar-l" d="M770.979 224.232c-0.121-58.56-47.253-105.619-105.032-105.733h-304.685c-57.76 0.115-104.892 47.173-105.020 105.733v264.141c0.129 58.558 47.26 105.625 105.020 105.733h304.685c57.78-0.109 104.911-47.175 105.032-105.733zM729.539 815.13v-110.388c0-25.059-20.395-45.452-45.426-45.452h-38.69c-25.071 0-45.45 20.393-45.45 45.452v119.887h-172.705v-118.719c0-25.055-20.381-45.45-45.428-45.45h-38.7c-25.045 0-45.452 20.395-45.452 45.45v109.229c-89.601-27.347-154.624-110.846-154.624-209.457v-381.451c0-120.753 97.492-218.892 218.199-218.956h304.685c120.727 0.063 218.219 98.197 218.227 218.956v381.451c-0.008 98.601-65.029 182.1-154.634 209.447zM381.84 881.248h-38.7c-3.472 0-6.324-2.852-6.324-6.334v-169.002c0-3.506 2.852-6.358 6.324-6.358h38.7c3.466 0 6.324 2.852 6.324 6.358v168.99c0 3.494-2.858 6.346-6.324 6.346zM684.112 880.077h-38.688c-3.482 0-6.348-2.842-6.348-6.334v-168.994c0-3.504 2.858-6.356 6.348-6.356h38.688c3.478 0 6.34 2.852 6.34 6.356v168.994c0 3.492-2.862 6.334-6.34 6.334zM651.772 479.054c-1.040 1.066-2.426 1.596-3.815 1.596-1.396 0-2.813-0.531-3.852-1.596l-158.472-158.48-75.364 75.354c-1.052 1.052-2.45 1.587-3.835 1.587-1.392 0-2.765-0.535-3.819-1.587l-23.445-23.439c-2.105-2.098-2.105-5.548 0-7.679l78.927-78.929c0.069-0.083 0.133-0.212 0.222-0.301l23.439-23.439c1.054-1.040 2.44-1.577 3.811-1.577 1.398 0 2.789 0.537 3.825 1.577l185.829 185.809c2.103 2.105 2.103 5.566 0 7.679z" />
<glyph unicode="&#xe607;" glyph-name="close-l" d="M727.101 645.689c112.672-112.674 112.662-296.011 0.012-408.657-1.012-1.010-1.771-2.204-2.662-3.262-1.097-0.931-2.272-1.67-3.294-2.672-112.666-112.686-295.98-112.674-408.649 0-2.678 2.672-5.593 4.977-8.592 7.031-2.072 3.019-4.365 5.92-7.053 8.608-112.658 112.658-112.676 295.962 0.006 408.647 1.012 1.008 1.749 2.216 2.682 3.276 1.060 0.933 2.262 1.668 3.266 2.668 112.648 112.65 295.984 112.658 408.639 0 2.678-2.676 5.589-4.985 8.616-7.039 2.040-3.015 4.35-5.926 7.029-8.6zM794.071 743.927c-158.215 158.199-415.641 158.191-573.842-0.010-1.010-1.016-1.753-2.222-2.67-3.27-1.075-0.943-2.27-1.67-3.276-2.68-158.205-158.201-158.205-415.621 0.002-573.83 2.678-2.674 5.58-4.971 8.6-7.041 2.064-3.017 4.357-5.91 7.037-8.594 158.209-158.209 415.625-158.209 573.83 0 1.012 1.004 1.757 2.201 2.68 3.276 1.062 0.929 2.264 1.664 3.276 2.658 158.209 158.227 158.203 415.635-0.006 573.842-2.668 2.682-5.587 4.966-8.592 7.027-2.066 3.024-4.371 5.936-7.039 8.622zM594.124 613.689l-84.192-84.198-82.14 82.14c-22.795 22.797-59.477 23.106-82.29 0.305-22.805-22.811-22.496-59.493 0.305-82.29l82.136-82.138-83.447-83.427c-22.791-22.813-23.11-59.487-0.291-82.282 22.807-22.829 59.477-22.508 82.286 0.301l83.427 83.427 85.501-85.493c22.809-22.813 59.477-23.11 82.286-0.301 22.819 22.815 22.508 59.477-0.299 82.286l-85.497 85.501 84.184 84.2c22.805 22.809 23.11 59.459 0.317 82.267-22.817 22.817-59.493 22.512-82.286-0.297z" />
<glyph unicode="&#xe608;" glyph-name="coins-l" d="M785.872 343.729v176.9c0-28.621-147.226-51.792-328.779-51.792-181.573 0-328.801 23.172-328.801 51.792v-176.9c0-28.609 147.228-51.814 328.801-51.814 181.553 0 328.779 23.205 328.779 51.814zM561.648 240.994c-181.577 0-328.771 23.205-328.771 51.834v-176.906c0-28.609 147.195-51.816 328.771-51.816 181.605 0 328.773 23.207 328.773 51.816v176.9c0-28.622-147.169-51.828-328.773-51.828zM245.736 764.926c29.914-16.202 143.913-35.886 311.316-35.886 175.502 0 292.375 21.637 315.119 38.215-0.561 0.414-1.242 0.83-1.923 1.25-46.181 19.811-166.878 33.943-308.598 33.943-150.063 0-276.522-15.857-315.913-37.522zM795.331 713.298c-63.779-10.353-148.403-16.059-238.279-16.059-89.874 0-174.502 5.706-238.283 16.059-42.907 6.968-69.525 14.782-85.891 22.865v-161.418c0-28.609 147.193-51.814 328.771-51.814 181.605 0 328.773 23.205 328.773 51.814v166.674c-14.867-9.929-42.945-19.652-95.091-28.121zM241.924 767.255c22.746-16.578 139.624-38.215 315.129-38.215 175.5 0 292.375 21.637 315.119 38.215-22.744 16.57-139.619 38.203-315.119 38.203-175.504 0-292.383-21.633-315.129-38.203z" />
<glyph unicode="&#xe60a;" glyph-name="edit-l" d="M347.75 270.489h100.027l-100.027 100.031zM382.142 410.86l106.084-106.082 318.258 318.313-106.086 106.12zM841.852 870.684l-35.369-35.367 106.092-106.106 35.363 35.386zM771.123 799.953l-35.359-35.355 106.088-106.116 35.371 35.361zM847.913 593.816v-423.366c0-55.235-44.795-100.023-100.037-100.023h-500.16c-55.248 0-100.033 44.789-100.033 100.023v500.177c0 55.225 44.785 100.023 100.033 100.023h423.32l-99.982-100.023h-323.338v-500.177h500.16v323.311z" />
<glyph unicode="&#xe60b;" glyph-name="eye-l" d="M516.31 118.222c-177.283 0-321.043 143.744-321.043 321.061 0 177.322 143.76 321.069 321.043 321.069 177.348 0 321.086-143.746 321.086-321.069 0-177.316-143.738-321.061-321.086-321.061zM516.31 849.541c-226.546 0-410.228-183.708-410.228-410.258 0-226.577 183.682-410.252 410.228-410.252 226.589 0 410.279 183.674 410.279 410.252 0 226.55-183.69 410.258-410.279 410.258zM666.735 532.052c-10.824-14.77-28.244-24.394-47.95-24.394-32.847 0-59.455 26.606-59.455 59.469 0 15.029 5.631 28.723 14.823 39.195-18.147 6.275-37.557 9.866-57.825 9.866-97.696 0-176.885-79.205-176.885-176.902 0-97.678 79.203-176.871 176.885-176.871 97.696 0 176.877 79.201 176.877 176.871 0 34.049-9.788 65.78-26.47 92.766z" />
<glyph unicode="&#xe60c;" glyph-name="friend-add-l" d="M766.981 688.857h-508.274c-6.098 0-11.040-3.278-11.040-7.332v-88.072c0-4.052 4.942-7.334 11.040-7.334h508.274c6.075 0 11.064 3.282 11.064 7.334v88.072c0 4.054-4.989 7.332-11.064 7.332zM755.217 722.592c-7.513 68.075-79.704 124.387-176.067 142.471v7.295c0 24.588-30.371 45.373-66.32 45.373-37.169 0-66.281-18.769-66.281-42.693v-10.062c-95.468-18.145-167.282-74.296-175.93-142.384zM707.704 171.994l-0.014 104.462h-57.776c-40.368-23.528-87.091-37.264-137.085-37.264-72.431 0-138.315 28.327-187.325 74.394-91.425-14.528-164.765-32.889-164.765-32.889l34.741-277.714h634.751l21.136 168.996zM603.215 492.704h104.476v41.307h-423.068c-0.65-6.944-1.006-13.94-1.006-21.046 0-126.362 102.834-229.202 229.214-229.202 32.097 0 62.642 6.683 90.397 18.648zM667.292 428.636h104.476l-0.006 104.999h88.121l-0.018-104.999 105.026-0.012-0.008-88.1h-105.007v-104.478l-88.11 0.014-0.006 104.464h-104.464z" />
<glyph unicode="&#xe60d;" glyph-name="friend-l" d="M639.54 322.112c-42.703 5.261-86.565 8.873-126.782 8.873-40.356 0-84.208-3.589-126.833-8.842 36.337-24.237 79.955-38.403 126.833-38.403 46.845 0 90.443 14.15 126.782 38.371zM700.041 313.54c-49.003-46.050-114.88-74.348-187.283-74.348-72.423 0-138.313 28.317-187.321 74.397-91.433-14.536-164.781-32.901-164.781-32.901l34.749-277.71h634.765l34.715 277.71c0 0-73.512 18.321-164.844 32.851zM536.542 740.965c-7.818 0.81-15.75 1.236-23.784 1.236s-15.954-0.426-23.774-1.236zM284.547 533.996c-0.636-6.932-1.008-13.938-1.008-21.029 0-126.4 102.83-229.227 229.218-229.227 126.404 0 229.245 102.828 229.245 229.227 0 7.091-0.37 14.096-1.002 21.029zM755.135 722.582c-7.507 68.071-79.698 124.379-176.057 142.473v7.291c0 24.59-30.383 45.383-66.322 45.383-37.163 0-66.277-18.765-66.277-42.691v-10.070c-95.476-18.149-167.288-74.298-175.94-142.386zM766.909 688.861h-508.286c-6.096 0-11.036-3.292-11.036-7.346v-88.060c0-4.054 4.94-7.358 11.036-7.358h508.286c6.069 0 11.052 3.304 11.052 7.358v88.060c0 4.054-4.983 7.346-11.052 7.346z" />
<glyph unicode="&#xe60e;" glyph-name="friend-remove-l" d="M512.78 239.188c-44.331 0-86.139 10.715-123.149 29.547l33.309 33.748c27.608-11.9 57.893-18.719 89.841-18.719 126.415 0 229.235 102.84 229.235 229.2 0 7.109-0.368 14.102-0.998 21.048h-89.645l51.416 52.109h64.144c6.069 0 11.064 3.278 11.064 7.334v68.887l133.532 135.33-50.879 50.883-30.944-31.36-0.204 0.212-752.961-763.141 50.869-50.883 30.94 31.358 0.206-0.2 29.221 29.605 7.649-61.165h634.753l34.739 277.718c0 0-73.522 18.333-164.86 32.847-49.001-46.050-114.878-74.36-187.277-74.36zM315.183 397.377l134.815 136.636h-165.428c-0.652-6.946-1.004-13.94-1.004-21.048 0-42.17 11.65-81.603 31.617-115.587zM258.651 586.121h242.753l101.366 102.735h-344.119c-6.1 0-11.036-3.278-11.036-7.33v-88.070c0-4.056 4.936-7.334 11.036-7.334zM713.458 801.042c-31.726 30.599-79.006 53.632-134.356 64.021v7.295c0 24.592-30.371 45.377-66.322 45.377-37.165 0-66.287-18.773-66.287-42.699v-10.060c-95.466-18.145-167.271-74.291-175.93-142.38h365.487z" />
<glyph unicode="&#xe60f;" glyph-name="tab-stash" d="M740.057 645.582h-443.237v93.017h443.237zM598.188 372.548c-50.759 28.997-107.319 2.917-124.734-8.672-17.399-11.605-53.672-24.69-104.449-31.927-40.28-5.775-64.072-28.859-72.186-38.117v333.882h443.237v-210.713c-29.267 16.702-92.935-72.385-141.862-44.45zM754.468 636.65c0 3.793-3.185 6.875-7.964 8.199v100.196h-456.16v-100.196c-4.777-1.33-7.976-4.419-7.976-8.199s3.208-6.889 7.976-8.225v-470.070h456.133v470.070c4.794 1.336 7.978 4.432 7.978 8.225zM348.72 380.9c7.371 0 13.325-5.966 13.325-13.315 0-7.414-5.953-13.372-13.325-13.372-7.398 0-13.374 5.959-13.374 13.372 0 7.349 5.976 13.315 13.374 13.315zM454.596 449.676c4.505 0 8.15-3.648 8.15-8.154s-3.645-8.15-8.15-8.15c-4.494 0-8.152 3.645-8.152 8.15 0 4.497 3.648 8.154 8.152 8.154zM580.881 438.016c9.090 0 16.427-7.352 16.427-16.446 0-9.078-7.337-16.425-16.427-16.425s-16.446 7.347-16.446 16.425c0 9.090 7.352 16.446 16.446 16.446zM446.456 410.874c10.583 0 19.159-8.571 19.159-19.141 0-10.595-8.573-19.193-19.159-19.193s-19.191 8.598-19.191 19.193c0 10.57 8.599 19.141 19.191 19.141zM672.88 437.472c7.352 0 13.301-5.959 13.301-13.361 0-7.349-5.953-13.327-13.301-13.327-7.371 0-13.323 5.978-13.323 13.327 0 7.398 5.951 13.361 13.323 13.361zM607.099 405.153c5.449 0 9.793-4.382 9.793-9.786 0-5.409-4.345-9.809-9.793-9.809-5.409 0-9.79 4.396-9.79 9.809 0 5.409 4.382 9.786 9.79 9.786zM537.748 422.032c-3.406-3.033-3.731-8.258-0.678-11.666 3.049-3.424 8.262-3.771 11.658-0.715 3.422 3.085 3.752 8.273 0.68 11.69-3.041 3.392-8.269 3.731-11.672 0.678zM497.315 426.419c5.84 0 10.558-4.744 10.558-10.574 0-5.84-4.719-10.544-10.558-10.544-5.83 0-10.522 4.712-10.522 10.544 0 5.83 4.692 10.574 10.522 10.574zM396.575 405.997c7.881 0 14.252-6.41 14.252-14.287 0-7.867-6.372-14.262-14.252-14.262-7.903 0-14.25 6.395-14.25 14.262 0 7.877 6.347 14.287 14.25 14.287zM625.062 449.676c4.492 0 8.124-3.648 8.124-8.154s-3.643-8.15-8.124-8.15c-4.509 0-8.165 3.645-8.165 8.15 0 4.497 3.656 8.154 8.165 8.154zM518.41 459.477c5.445 0 9.816-4.408 9.816-9.801 0-5.4-4.371-9.797-9.816-9.797-5.409 0-9.769 4.398-9.769 9.797 0 5.394 4.357 9.801 9.769 9.801zM726.344 668.577h-415.822v9.461h415.822zM726.344 688.25h-415.822v9.461h415.822zM726.344 708.144h-415.822v9.463h415.822z" />
<glyph unicode="&#xe610;" glyph-name="tab-social-weedia" d="M363.812 315.303l-20.131 181.322c-46.076-2.413-100.924-19.889-100.924-19.889l20.161-141.245 40.366-40.36v-121.067c0 0 26.514-20.193 50.444-20.193 23.642 0 50.448 20.193 50.448 20.193v114.35zM370.806 482.018c0 0 80.522 20.169 141.269 20.169 60.347 0 141.249-20.169 141.249-20.169l-20.193-161.436-60.522-40.366v-141.247c0 0-30.467-20.191-60.524-20.191-30.472 0-60.558 20.191-60.558 20.191v141.247l-60.542 40.366zM411.578 631.699c-0.215-2.79-0.423-5.583-0.423-8.434 0-55.711 45.173-100.916 100.91-100.916 55.703 0 100.892 45.2 100.892 100.916 0 2.851-0.188 5.644-0.436 8.434zM392.005 638.732c-4.487 4.292-7.236 10.19-7.236 16.821v26.945c-4.523 0.809-9.19 1.315-13.964 1.315-44.626 0-80.796-36.103-80.796-80.627 0-44.533 36.17-80.642 80.796-80.642 19.932 0 38.117 7.231 52.211 19.164-19.776 21.519-32.032 50.035-32.032 81.558 0 5.246 0.371 10.392 1.021 15.452zM660.184 315.303l20.127 181.322c46.076-2.413 100.924-19.889 100.924-19.889l-20.159-141.245-40.363-40.36v-121.067c0 0-26.52-20.193-50.444-20.193-23.65 0-50.45 20.193-50.45 20.193v114.35zM631.988 638.732c4.487 4.292 7.243 10.19 7.243 16.821v26.945c4.522 0.809 9.19 1.315 13.956 1.315 44.63 0 80.796-36.103 80.796-80.627 0-44.533-36.166-80.642-80.796-80.642-19.924 0-38.115 7.231-52.211 19.164 19.776 21.519 32.030 50.035 32.030 81.558 0 5.246-0.361 10.392-1.021 15.452zM609.297 707.376c-3.022 27.282-31.977 49.868-70.631 57.125v2.949c0 9.848-12.191 18.185-26.587 18.185-14.921 0-26.593-7.523-26.593-17.109v-4.049c-38.323-7.273-67.123-29.799-70.583-57.105zM614.022 693.841h-203.912c-2.44 0-4.428-1.341-4.428-2.973v-35.317c0-1.631 1.98-2.938 4.428-2.938h203.912c2.426 0 4.426 1.313 4.426 2.938v35.317c0 1.633-2 2.973-4.426 2.973z" />
<glyph unicode="&#xe611;" glyph-name="tab-settings" d="M586.22 270.517c0 39.402-31.961 71.361-71.371 71.361s-71.358-31.965-71.358-71.361c0-39.424 31.939-71.375 71.358-71.375s71.371 31.951 71.371 71.375zM586.22 447.302c0 39.422-31.961 71.361-71.371 71.361s-71.358-31.939-71.358-71.361c0-39.411 31.939-71.344 71.358-71.344s71.371 31.935 71.371 71.344zM586.22 624.088c0 39.444-31.961 71.369-71.371 71.369s-71.358-31.926-71.358-71.369c0-39.383 31.939-71.336 71.358-71.336s71.371 31.953 71.371 71.336z" />
<glyph unicode="&#xe612;" glyph-name="tab-ripometer-tool" d="M741.7 301.737h6.483c1.436-2.896 3.594-6.464 6.471-10.773h-9.715zM735.225 320.022l-3.19 10.769c1.404-2.874 3.538-6.456 6.44-10.769zM661.913 527.812h-67.93c0.030 0.016 0.055 0.034 0.081 0.045h-132.664c5.101-9.023 10.12-16.519 14.264-21.736h85.713c0.087 0.075 0.176 0.087 0.237 0.152h77.661c-2.897-1.474-5.593-2.888-8.085-4.302-2.526-1.448-5.237-2.878-8.103-4.314h-64.722c-0.225 0.141-0.508 0.192-0.791 0.283h-73.491c0.042-0.012 0.123-0.030 0.178-0.057-5.805 0-30.496-0.034-48.745-0.089-0.012-0.055-0.044-0.099-0.061-0.141h-20.502c-0.032 0.044-0.057 0.087-0.101 0.164-0.835 0.773-10.055 9.966-20.166 59.052h-0.222c0 0.556-0.061 1.076-0.107 1.608-0.154 0.795-0.328 1.604-0.492 2.466-0.176 0.564-0.295 1.177-0.384 1.839-1.384 7.189-2.814 15.124-4.193 23.932-0.008 0.087-0.026 0.184-0.038 0.273h-0.182v1.147c-4.187 26.638-5.955 45.173-6.39 58.069h-0.063v2.492c-0.578 23.991 3.608 26.564 3.608 26.564h-0.384c0.214 0.424 0.403 0.783 0.566 1.1 1.078 4.27 7.992 20.051 51.401 29.044h-0.208c0.346 0.067 0.655 0.101 0.99 0.166 27.549 5.609 69.58 8.473 133.712 4.13h37.863c2.122-0.7 4.302-1.448 6.444-2.121 2.172-0.742 4.342-1.45 6.485-2.17h-78.579c-34.2-3.768-58.563-12.622-75.43-24.729h193.911c0.688-1.481 1.436-2.363 2.136-2.726 0.73-0.34 1.806-1.256 3.253-2.688h-206.094c-8.085-7.106-14.056-15.103-18.206-23.696h239.387c1.452-2.868 2.154-4.674 2.154-5.36h-243.902c-2.985-7.532-4.697-15.407-5.433-23.471l254.739-0.204c0-1.464 0.178-2.541 0.522-3.224 0.368-0.722 0.554-1.822 0.554-3.24h-42.426v-0.129h-213.786c-0.182-7.401 0.415-14.873 1.58-22.316l253.553-0.172c-0.742-1.42-1.078-3.594-1.078-6.462h-53.472v-0.164h-197.76c1.58-7.64 3.704-15.156 6.234-22.409l237.445-0.022c-0.72-1.438-1.084-2.876-1.084-4.312 0-0.72-0.37-1.798-1.076-3.212h-43.759v-0.222h-188.685c2.888-7.46 6.119-14.559 9.446-21.024h179.234v-0.283h31.912c-1.448-2.148-3.606-4.697-6.471-7.533zM406.334 409.38c3.584 3.586 9.314 6.802 17.247 9.674h129.392c5.043-2.158 10.415-5.384 16.2-9.674zM807.419 143.474h-12.864l-4.314 12.935h13.255c-1.323 4.369-2.935 9.802-4.798 16.145h-13.835l-4.314 12.919h14.274c-1.521 5.045-3.157 10.451-4.909 16.145h-14.766l-4.3 12.913h15.081c-1.703 5.544-3.521 11.317-5.384 17.227h-16.159l-3.251 11.827h15.595c-1.835 5.661-3.704 11.4-5.657 17.237h-16.41l-3.242 11.845h13.995c1.851-3.639 3.376-6.566 4.589-8.746-27.682 82.869-66.221 180.308-99.543 191.866 0 0 80.147 14.731 80.147 140.813 0 96.918-16.123 149.384-71.896 168.484-2.767 0.837-6.956 2.122-6.956 2.122l-2.209 0.653c-14.875 3.857-32.272 5.744-52.545 5.744-106.917 0-354.573-3.639-354.573-3.639v-31.17h43.613v-4.312h-43.613v-24.768h43.613v-4.296h-43.613v-24.729h44.701v-5.415h-44.701v-23.696h44.701v-5.36h-44.701v-23.674h45.79v-6.464h-45.79v-22.616h45.79v-6.462h-45.79v-22.599h46.86v-7.53h-46.86v-21.529h46.86v-7.533h-46.86v-21.538h47.919v-8.621h-47.919v-20.47h47.919v-8.6h-47.919v-20.458h48.994v-9.674h-48.994v-19.394h48.994v-9.674h-48.994v-20.439h50.098v-9.741h-50.098v-19.351h50.098v-9.674h-50.098v-19.387h50.098v-10.769h-50.098v-18.281h51.142v-10.773h-51.142v-18.295h51.142v-11.845h-51.142v-17.237h51.142v-11.827h-51.142v-17.227h52.23v-12.913h-52.23v-16.145h52.23v-12.919h-52.23v-16.145h52.23v-12.935h-52.022c1.027-4.236 4.685-10.73 16.718-16.125h126.050c9.642 5.178 11.845 11.432 11.774 16.125h-32.234l-1.505 12.935h31.987v16.145h-33.914c0 2.146-0.184 4.325-0.536 6.464-0.34 2.13-0.528 4.31-0.528 6.456h34.978v16.145h-36.073v12.913h36.073v17.227h-37.139v11.827h37.139v17.237h-37.139v11.845h37.139v18.295h-37.139v10.773h37.373c0.239 4.543 0.655 11.024 1.416 18.281h-37.717c0 5.030 0.372 8.623 1.096 10.769h37.944c0.914 6.483 2.116 13.133 3.728 19.387h-39.507c0.718 1.414 1.076 2.862 1.076 4.302 0 2.146 0.346 3.932 1.078 5.368h40.254c3.615 10.115 8.641 17.705 15.492 19.351h-51.453l3.255 9.741h194.115c1.43-1.458 2.506-2.874 3.198-4.339 0.724-1.436 1.814-2.852 3.257-4.294v-1.111h-55.234c7.668-1.503 15.69-8.372 23.87-19.351h43.235c1.436-1.436 2.342-3.072 2.688-4.834 0.358-1.792 1.24-3.422 2.702-4.836h-42.031c3.615-5.756 7.266-12.296 10.885-19.387h39.766c1.428-1.434 2.34-3.211 2.708-5.37 0.343-2.158 0.886-3.95 1.606-5.399h-38.807c2.712-5.789 5.392-11.889 8.115-18.281h38.239c0.686-2.172 1.462-4.159 2.18-5.91 0.7-1.818 1.432-3.439 2.136-4.867h-38.154c2.356-5.91 4.683-12.031 6.972-18.295h36.56c0.712-2.148 1.456-4.31 2.172-6.462 0.707-2.178 1.436-3.978 2.178-5.384h-36.653c1.972-5.633 3.938-11.365 5.864-17.237h36.17c1.412-5.74 2.506-9.674 3.226-11.827h-35.539c1.984-6.2 3.849-11.908 5.577-17.227h35.363l3.226-12.913h-34.408c1.94-6.026 3.696-11.382 5.231-16.145h34.556c1.438-5.752 2.868-10.053 4.327-12.919h-34.677c2.375-7.28 4.060-12.464 5.265-16.145h34.827c1.216-3.732 4.059-11.756 5.736-15.726l-33.48 2.791c4.567-4.236 12.901-10.73 25.646-16.125h129.132c3.88 3.71 5.073 8.922 3.354 16.125z" />
<glyph unicode="&#xe613;" glyph-name="group-add-l" d="M314.052 270.727l-26.905 242.225c-61.555-3.225-134.821-26.567-134.821-26.567l26.939-188.691 53.923-53.912v-161.737c0 0 35.406-26.971 67.386-26.971 31.566 0 67.386 26.971 67.386 26.971v152.766zM351.704 702.796c-6.007 5.734-9.674 13.615-9.674 22.477v35.991c-6.053 1.075-12.274 1.763-18.658 1.763-59.616 0-107.944-48.227-107.944-107.704 0-59.491 48.328-107.732 107.944-107.732 26.63 0 50.925 9.662 69.751 25.604-26.416 28.743-42.794 66.835-42.794 108.956 0 7.010 0.491 13.878 1.375 20.646zM641.971 794.498c-4.029 36.452-42.707 66.625-94.355 76.319v3.943c0 13.152-16.289 24.289-35.523 24.289-19.937 0-35.527-10.046-35.527-22.859v-5.407c-51.192-9.711-89.674-39.809-94.291-76.285zM648.29 776.415h-272.41c-3.266 0-5.906-1.789-5.906-3.967v-47.175c0-2.177 2.64-3.93 5.906-3.93h272.41c3.242 0 5.92 1.753 5.92 3.93v47.175c0 2.179-2.678 3.967-5.92 3.967zM483.205 652.465h104.476l-0.006 40.946h-209.823c-0.283-3.728-0.557-7.459-0.557-11.262 0-64.508 45.357-118.39 105.916-131.631zM587.687 331.756l-0.006 104.448h-104.47v83.168c-75.622-4.855-159.837-25.931-159.837-25.931l26.955-215.658 80.888-53.923v-188.691c0 0 40.193-26.967 80.902-26.967 40.144 0 80.848 26.967 80.848 26.967v188.691l80.852 53.923 6.746 53.961zM547.28 588.396h104.476l-0.006 105.016 88.115-0.012-0.012-105.005 105.026-0.022-0.012-88.072-105.003-0.022v-104.466h-88.11l-0.012 104.466h-104.464z" />
<glyph unicode="&#xe614;" glyph-name="heart-l" d="M687.145 801.967c-86.654 0-141.338-42.172-173.088-80.306-31.732 38.134-86.42 80.306-173.106 80.306-147.535 0-246.63-136.681-246.63-264.329 0-185.817 356.928-434.851 397.625-462.638 6.669-4.544 14.389-6.815 22.11-6.815 7.734 0 15.455 2.272 22.116 6.815 40.704 27.787 397.621 276.821 397.621 462.638 0 127.647-99.118 264.329-246.649 264.329z" />
<glyph unicode="&#xe615;" glyph-name="info-l" d="M559.217 481.404v46.009h-122.791v-47.213h28.345v-170.030h-28.345v-47.227h151.136v47.227h-28.345zM512.002 651.433c26.079 0 47.215-21.149 47.215-47.227 0-26.085-21.136-47.231-47.215-47.231-26.073 0-47.231 21.146-47.231 47.231 0 26.077 21.157 47.227 47.231 47.227zM512.002 152.081c-168.57 0-305.703 137.163-305.703 305.705 0 168.568 137.153 305.716 305.703 305.716 168.556 0 305.681-137.149 305.681-305.716 0.020-168.542-137.125-305.705-305.681-305.705zM924.028 457.804c0 227.197-184.845 412.016-412.026 412.016-227.197 0-412.028-184.819-412.028-412.016 0-183.217 120.226-338.795 285.874-392.208l126.154-126.162 126.146 126.14c165.662 53.434 285.88 209.013 285.88 392.23z" />
<glyph unicode="&#xe616;" glyph-name="joint-l" d="M843.329 60.886c0-9.602-6.966-18.256-15.639-17.37l-805.522 92.172c-12.437 1.868-21.936 11.725-21.936 25.392 0 14.027 9.862 24.101 22.613 25.582l801.945 91.889c10.335 0.911 15.065-4.207 17.39-10.577l1.149-7.041zM716.598 543.365c-57.918 5.914-117.796 12.034-162.137 44.167-49.76 36.082-73.954 102.032-73.954 201.651 0 10.767-8.42 19.525-18.777 19.525h-7.707c-10.331 0-18.753-8.758-18.753-19.559l0.107-16.271c5.75-246.473 143.2-260.75 264.473-273.323 98.419-10.22 183.413-19.048 186.778-147.014v-19.729c0-10.743 8.432-19.482 18.818-19.482h7.675c10.355 0 18.787 8.739 18.787 19.432l0.083 11.527c0 177.077-109.507 188.26-215.395 199.076zM1021.853 346.042c-0.759 119.436-8.576 210.746-44.333 268.143-35.182 56.554-94.913 80.66-199.69 80.66-22.932 0-25.566 13.421-26.131 44.056-0.046 3.028-0.105 6.023-0.208 8.982-5.734 159.455-94.911 192.124-236.97 193.16l-25.588 0.028c-11.234 0-20.369-9.485-20.369-21.161v-7.992c0-11.682 9.135-21.187 20.369-21.187l25.406-0.028c171.973-1.234 181.371-69.563 185.887-102.394 1.436-10.48 1.86-22.247 2.317-34.719 1.755-48.593 3.936-109.085 75.287-109.085 161.132 0 194.023-50.22 195.542-298.517l0.050-20.423-0.050-20.924c0-11.7 9.155-21.207 20.403-21.207h7.683c11.238 0 20.395 9.507 20.395 21.191l0.024 20.92zM931.557 71.69c0-12.65-9.883-22.908-22.063-22.908-12.175 0-22.061 10.258-22.061 22.908v174.001c0 12.645 9.885 22.9 22.061 22.9 12.179 0 22.063-10.256 22.063-22.9zM1019.783 103.644c0-13.411-9.876-24.303-22.070-24.303-12.169 0-22.037 10.892-22.037 24.303v109.305c0 13.415 9.868 24.289 22.037 24.289 12.195 0 22.070-10.874 22.070-24.289z" />
<glyph unicode="&#xe617;" glyph-name="joint-off-l" d="M912.153 268.406c-12.201 0-22.074-10.264-22.074-22.928v-173.977c0-12.65 9.874-22.924 22.074-22.924 12.163 0 22.037 10.274 22.037 22.924v173.977c0 12.664-9.874 22.928-22.037 22.928zM1000.362 237.044c-12.175 0-22.035-10.886-22.035-24.303v-109.295c0-13.413 9.86-24.324 22.035-24.324 12.189 0 22.063 10.911 22.063 24.324v109.295c0 13.417-9.874 24.303-22.063 24.303zM25.472 186.464c-12.728-1.489-22.613-11.547-22.613-25.55 0-13.702 9.511-23.552 21.938-25.432l137.85-15.768 91.736 92.978zM564.841 527.349l36.816 37.316c-15.93 5.692-31.027 12.876-44.567 22.686-49.754 36.078-73.946 102.012-73.946 201.649 0 10.745-8.408 19.507-18.781 19.507h-7.697c-10.337 0-18.745-8.762-18.745-19.559l0.101-16.259c3.561-152.425 57.498-215.997 126.818-245.34zM491.567 890.535l25.41-0.028c171.969-1.25 181.367-69.577 185.901-102.386 1.438-10.472 1.862-22.249 2.302-34.723 0.868-24.126 1.868-51.17 11.367-72.294l38.761 39.296c-0.564 5.253-0.842 11.272-0.976 18.307-0.038 3.026-0.101 6.019-0.19 8.982-5.742 159.465-94.925 192.124-236.988 193.16l-25.586 0.028c-11.222 0-20.357-9.497-20.357-21.138v-8.020c0-11.674 9.135-21.185 20.357-21.185zM1024.476 345.837c-0.739 119.455-8.558 210.76-44.325 268.143-16.709 26.868-39.267 46.163-69.287 59.263l81.195 82.368-0.093 101.671-162.727-164.765c-0.113 0-0.208 0.022-0.315 0.038l-47.595-48.239h0.307l-96.23-97.434c-0.061 0.014-0.125 0.026-0.188 0.026l-40.118-40.657c0.053-0.012 0.105-0.012 0.154-0.012l-457.231-462.983h101.849l54.829 55.637 485.637-55.561c8.671-0.899 15.629 7.748 15.629 17.345v200.058l-1.137 7.045c-2.343 6.356-7.061 11.486-17.392 10.573l-344.767-39.506 253.17 256.844c83.548-10.173 150.459-30.096 153.43-143.342v-19.737c0-10.727 8.428-19.486 18.828-19.486h7.671c10.341 0 18.783 8.758 18.783 19.436l0.089 11.527c0 145.319-73.764 178.895-158.728 192.247l96.69 98.094c82.423-23.877 102.242-97.607 103.432-288.641l0.040-20.407-0.040-20.951c0-11.688 9.135-21.173 20.379-21.173h7.671c11.242 0 20.391 9.485 20.391 21.173l0.038 20.924z" />
<glyph unicode="&#xe618;" glyph-name="message-l" d="M521.261 180.834c-219.39 0-397.863 135.729-397.863 302.581s178.473 302.579 397.863 302.579c219.374 0 397.871-135.729 397.871-302.579 0-166.853-178.497-302.581-397.871-302.581zM521.261 864.763c-262.808 0-476.602-171.089-476.602-381.348v-321.512c0-113.696 72.268-125.932 103.373-125.932 6.168 0 12.508 0.41 18.838 1.234l0.959 0.123 0.953 0.267c9.981 2.555 25.64 8.335 43.598 21.304l108.918 78.795c63.488-23.625 130.727-35.614 199.963-35.614 262.778 0 476.592 171.058 476.592 381.336 0 210.259-213.814 381.348-476.592 381.348zM716.677 568.615h-374.059c-17.923 0-32.481-14.536-32.481-32.473 0-17.957 14.558-32.489 32.481-32.489h374.059c17.939 0 32.469 14.532 32.469 32.489 0 17.937-14.53 32.473-32.469 32.473zM579.486 450.008h-236.869c-17.923 0-32.481-14.53-32.481-32.475 0-17.959 14.558-32.481 32.481-32.481h236.869c17.947 0 32.487 14.522 32.487 32.481 0 17.945-14.54 32.475-32.487 32.475z" />
<glyph unicode="&#xe619;" glyph-name="photos-l" d="M136.824 679.010h506.821v-497.379h-506.821zM96.684 19.338h587.114v708.117h-587.114zM368.040 897.579l-16.812-151.249h40.399l10.965 98.692 503.741-56.023-54.979-494.335-150.607 16.739v-163.295l172.573-19.177 78.274 703.781z" />
<glyph unicode="&#xe61a;" glyph-name="refresh-l" d="M887.855 443.416c-0.269 43.814-35.905 79.296-79.821 79.296-44.131 0-79.882-35.725-79.882-79.86 0-2.894 0.172-5.861 0.517-8.727v-3.803c0-119.703-97.379-217.068-217.046-217.068-119.695 0-217.072 97.365-217.072 217.068 0 119.62 97.377 217.033 217.072 217.033 9 0 18.006-0.561 27.006-1.691v-32.718h0.063c0-0.147-0.063-0.321-0.063-0.531 0-32.205 26.151-58.344 58.366-58.344 18.721 0 35.188 8.941 45.88 22.631h0.020l101.265 101.548c11.931 10.715 19.531 26.042 19.531 43.264 0 19.838-9.893 37.246-24.976 47.764l-98.379 98.52c-1.398 1.668-2.88 3.137-4.437 4.51l-1.703 1.691c-0.172 0-0.295 0.111-0.491 0.111-10.028 8.23-22.692 13.276-36.71 13.276-30.657 0-55.506-23.687-57.912-53.721-0.172-0.158-0.269-0.418-0.491-0.564v-27.262c-9.046 0.648-18.072 0.969-26.994 0.969-207.632 0-376.576-168.907-376.576-376.511 0-207.599 168.944-376.491 376.576-376.491s376.533 168.893 376.533 376.519v12.896c-0.117 0.051-0.149 0.149-0.275 0.198z" />
<glyph unicode="&#xe61b;" glyph-name="uniE61B" d="M437.863 565.367h172.63z" />
<glyph unicode="&#xe61c;" glyph-name="uniE61C" d="M437.863 588.678h172.63z" />
<glyph unicode="&#xe61d;" glyph-name="uniE61D" d="M437.863 541.448h172.63z" />
<glyph unicode="&#xe61e;" glyph-name="uniE61E" d="M437.863 518.26h172.63z" />
<glyph unicode="&#xe61f;" glyph-name="uniE61F" d="M437.863 494.336h150.455z" />
<glyph unicode="&#xe620;" glyph-name="uniE620" d="M816.793 255.172h8.604c1.915-3.831 4.787-8.58 8.604-14.318h-12.886zM808.205 279.489l-4.274 14.298c1.884-3.819 4.75-8.596 8.58-14.298zM710.772 555.567h-90.27c0.036 0.024 0.081 0.057 0.117 0.081h-176.286c6.748-12.001 13.431-21.942 18.933-28.902h113.91c0.105 0.069 0.208 0.133 0.315 0.206h103.172c-3.815-1.927-7.39-3.823-10.735-5.718-3.351-1.923-6.944-3.819-10.743-5.714h-85.992c-0.353 0.17-0.709 0.248-1.062 0.388h-97.678c0.079-0.020 0.158-0.055 0.232-0.071-7.707 0-40.487-0.073-64.768-0.131-0.028-0.069-0.057-0.139-0.083-0.186h-27.236c-0.051 0.063-0.089 0.133-0.141 0.202-1.133 1.010-13.365 13.241-26.798 78.48h-0.291c0 0.747-0.067 1.432-0.145 2.111-0.22 1.087-0.44 2.167-0.66 3.286-0.234 0.749-0.386 1.569-0.481 2.456-1.856 9.555-3.732 20.092-5.595 31.829-0.020 0.125-0.036 0.232-0.053 0.353h-0.234v1.509c-5.57 35.41-7.889 60.042-8.493 77.164h-0.099v3.322c-0.753 31.889 4.795 35.303 4.795 35.303h-0.491c0.277 0.555 0.525 1.030 0.759 1.464 1.442 5.667 10.612 26.622 68.277 38.599h-0.254c0.44 0.073 0.868 0.127 1.307 0.206 36.605 7.457 92.471 11.296 177.687 5.512h50.309c2.846-0.957 5.712-1.935 8.576-2.87 2.866-0.961 5.752-1.915 8.612-2.848h-104.432c-45.45-4.993-77.824-16.812-100.231-32.897h257.684c0.921-1.935 1.899-3.12 2.85-3.583 0.957-0.487 2.401-1.688 4.302-3.583h-273.85c-10.757-9.458-18.648-20.092-24.198-31.473h318.109c1.913-3.823 2.878-6.217 2.878-7.152h-324.135c-3.938-9.992-6.235-20.468-7.212-31.166h283.563v-0.297h54.926c0-1.931 0.244-3.355 0.741-4.286 0.46-0.969 0.711-2.391 0.711-4.294h-56.377v-0.154h-284.084c-0.236-9.834 0.543-19.789 2.103-29.664l336.906-0.228c-0.957-1.915-1.418-4.773-1.418-8.584h-71.042v-0.218h-262.802c2.084-10.157 4.918-20.161 8.24-29.795l315.56-0.010c-0.971-1.927-1.432-3.823-1.432-5.734 0-0.959-0.479-2.395-1.428-4.278h-58.138v-0.295h-250.763c3.864-9.917 8.166-19.321 12.581-27.937h238.182v-0.386h42.378c-1.901-2.86-4.773-6.217-8.584-10.016zM371.145 398.213c4.769 4.762 12.397 9.044 22.916 12.87h171.977c6.677-2.856 13.819-7.15 21.498-12.87zM904.122 44.882h-17.097l-5.738 17.172h17.622c-1.755 5.821-3.904 13.041-6.415 21.454h-18.379l-5.724 17.168h18.963c-2.018 6.705-4.193 13.888-6.51 21.458h-19.618l-5.74 17.164h20.070c-2.292 7.366-4.692 15.013-7.196 22.883h-21.466l-4.294 15.736h20.716c-2.428 7.493-4.934 15.138-7.513 22.894h-21.801l-4.29 15.72h18.586c2.438-4.831 4.476-8.699 6.132-11.609-36.832 110.121-88.024 239.566-132.31 254.948 0 0 106.5 19.589 106.5 187.109 0 128.806-21.441 198.511-95.551 223.888-3.688 1.119-9.24 2.805-9.24 2.805l-2.916 0.883c-19.781 5.138-42.877 7.614-69.822 7.614-142.080 0-471.193-4.833-471.193-4.833v-41.4h57.976v-5.726h-57.976v-32.897h57.976v-5.718h-57.976v-32.897h59.4v-7.166h-59.4v-31.473h59.4v-7.152h-59.4v-31.463h60.85v-8.58h-60.85v-30.047h60.85v-8.584h-60.85v-30.023h62.28v-10.012h-62.28v-28.619h62.28v-10.016h-62.28v-28.615h63.69v-11.432h-63.69v-27.198h63.69v-11.432h-63.69v-27.179h65.126v-12.858h-65.126v-25.768h65.126v-12.87h-65.126v-27.181h66.582v-12.886h-66.582v-25.729h66.582v-12.874h-66.582v-25.756h66.582v-14.298h-66.582v-24.317h67.986v-14.318h-67.986v-24.32h67.986v-15.72h-67.986v-22.894h67.986v-15.736h-67.986v-22.883h69.428v-17.164h-69.428v-21.458h69.428v-17.168h-69.428v-21.454h69.428v-17.172h-69.127c1.363-5.659 6.229-14.279 22.205-21.447h167.496c12.811 6.871 15.722 15.192 15.663 21.447h-42.85l-2.022 17.172h42.523v21.454h-45.050c0 2.844-0.238 5.726-0.715 8.576-0.471 2.866-0.695 5.734-0.695 8.592h46.46v21.458h-47.916v17.164h47.916v22.883h-49.34v15.736h49.34v22.894h-49.34v15.72h49.34v24.32h-49.34v14.318h49.673c0.293 6.073 0.844 14.643 1.844 24.317h-50.093c0 6.659 0.479 11.44 1.456 14.298h50.394c1.232 8.6 2.846 17.448 4.958 25.756h-52.499c0.965 1.895 1.444 3.799 1.444 5.726 0 2.85 0.465 5.221 1.428 7.148h53.498c4.821 13.393 11.47 23.528 20.597 25.729h-68.374l4.322 12.886h257.927c1.915-1.927 3.347-3.823 4.298-5.726 0.933-1.925 2.373-3.813 4.308-5.716v-1.444h-73.405c10.169-2.042 20.85-11.145 31.72-25.729h57.451c1.915-1.927 3.084-4.078 3.579-6.449 0.456-2.379 1.65-4.53 3.597-6.425h-55.864c4.815-7.651 9.648-16.291 14.473-25.756h52.834c1.909-1.915 3.104-4.294 3.603-7.156 0.452-2.844 1.173-5.239 2.143-7.142h-51.594c3.609-7.697 7.208-15.818 10.777-24.317h50.838c0.947-2.862 1.915-5.504 2.88-7.865 0.933-2.406 1.884-4.538 2.86-6.453h-50.725c3.127-7.855 6.233-15.972 9.299-24.32h48.586c0.933-2.838 1.903-5.706 2.86-8.572 0.931-2.858 1.913-5.257 2.872-7.148h-48.677c2.628-7.487 5.225-15.126 7.788-22.894h48.071c1.89-7.639 3.318-12.874 4.278-15.736h-47.223c2.662-8.222 5.122-15.816 7.412-22.883h46.991l4.296-17.164h-45.723c2.589-7.988 4.906-15.122 6.962-21.458h45.916c1.915-7.659 3.805-13.365 5.734-17.168h-46.070c3.143-9.668 5.395-16.572 6.99-21.454h46.26c1.636-4.936 5.419-15.614 7.643-20.894l-44.488 3.722c6.073-5.659 17.129-14.271 34.073-21.447h171.59c5.154 4.967 6.754 11.872 4.462 21.447z" />
<glyph unicode="&#xe621;" glyph-name="sitting-in-l" d="M490.529 433.135v374.204c24.241 0 43.901 19.686 43.901 43.893 0 24.255-19.66 43.905-43.901 43.905h-228.304c-24.239 0-43.879-19.65-43.879-43.905 0-24.208 19.64-43.893 43.879-43.893v-374.204c-23.312-12.643-44.157-29.199-62.032-48.534l-43.258 43.347-18.707 72.383-0.212-0.228c-1.087 2.753-2.688 5.302-4.861 7.523-8.614 8.592-22.482 8.592-31.075 0l-80.7-80.72c-8.568-8.572-8.568-22.486 0-31.031 2.22-2.222 4.793-3.846 7.546-4.91 1.464-0.576 3.015-0.971 4.563-1.198l67.594-17.671 54.924-55.023c-12.595-29.175-19.658-61.291-19.658-95.101 0-132.546 107.492-240.040 240.038-240.040 132.55 0 239.992 107.494 239.992 240.040 0.022 91.261-50.899 170.568-125.851 211.164zM703.068 670.555v-428.135l168.635 214.054zM702.576 861.859v-86.559l251.532-319.29-251.532-319.284v-86.573l319.722 405.857z" />
<glyph unicode="&#xe622;" glyph-name="sitting-out-l" d="M734.671 472.603h-0.127l-214.333 272.095v-83.814l388.799-493.425h66.021zM975.031 745.202h-66.019l-305.211-387.302c10.711-15.528 19.575-32.396 26.406-50.279l35.238 44.699v-0.127zM519.809 167.458h-66.019l150.011 190.44c-21.474 31.211-50.126 57.118-83.59 75.251v227.734l-66.421 84.319h66.019l0.402-0.505v62.648c24.229 0 43.874 19.694 43.874 43.868 0 24.279-19.644 43.927-43.874 43.927h-228.324c-24.229 0-43.874-19.648-43.874-43.927 0-24.174 19.644-43.868 43.874-43.868v-374.196c-23.3-12.654-44.147-29.223-62.020-48.546l-43.271 43.339-18.693 72.389-0.228-0.234c-1.075 2.761-2.678 5.314-4.855 7.54-8.608 8.598-22.473 8.598-31.061 0l-80.736-80.738c-8.533-8.556-8.533-22.475 0-31.005 2.252-2.244 4.829-3.856 7.582-4.92 1.48-0.588 3.030-0.986 4.581-1.2l67.574-17.683 54.91-54.997c-12.589-29.199-19.644-61.307-19.644-95.115 0-132.559 107.492-240.042 240.034-240.042 132.546 0 239.988 107.482 239.988 240.042 0 30.193-5.655 59.026-15.841 85.642z" />
<glyph unicode="&#xe623;" glyph-name="stop-watch-l" d="M854.499 732.106l-388.415-308.553c-23.223-23.223-23.223-56.615 0-79.85 23.249-23.233 56.613-23.233 79.838 0zM389.906 906.323v-58.077h58.055v-63.526c-196.461-28.403-348.433-196.978-348.433-401.063 0-223.818 182.692-406.526 406.512-406.526 223.816 0 406.538 182.708 406.538 406.526 0 87.238-27.305 167.78-74.39 234.102l-76.247-98.033c21.536-40.649 34.483-86.646 34.483-136.131 0-161.037-129.329-290.374-290.384-290.374-161.035 0-290.384 129.337-290.384 290.374 0 161.045 129.349 290.368 290.384 290.368 50.35 0 96.743-13.985 137.939-36.28l98.033 76.236c-51.866 37.349-112.024 61.331-177.893 70.801v63.526h58.071v58.077z" />
<glyph unicode="&#xe624;" glyph-name="video-l" d="M168.388 481.776c-28.979 0-48.429-19.474-48.429-48.421v-266.359c0-28.977 19.45-48.421 48.429-48.421h472.169c28.967 0 48.421 19.444 48.421 48.421v84.758c0 13.015 6.968 25.026 18.307 31.52 11.28 6.457 25.214 6.382 36.436-0.242l151.083-88.874v232.949l-149.787-96.912c-11.133-7.231-25.372-7.786-37.060-1.414-11.686 6.352-18.959 18.596-18.959 31.91v72.627c0 28.983-19.45 48.443-48.441 48.443h-472.169zM640.557 45.918h-472.169c-69.048 0-121.076 52.068-121.076 121.078v266.359c0 69.018 52.028 121.056 121.076 121.056h472.169c69.022 0 121.060-52.038 121.060-121.056v-5.873l149.767 96.886c11.157 7.237 25.394 7.79 37.068 1.428 11.722-6.366 18.961-18.608 18.961-31.908v-363.225c0-13.023-6.968-25.057-18.299-31.512-11.296-6.461-25.184-6.4-36.432 0.226l-151.091 88.864v-21.245c0.026-69.010-52.012-121.078-121.034-121.078zM564.232 829.404c-52.586 0-95.307-42.968-95.307-95.751 0-52.787 42.721-95.711 95.307-95.711 52.527 0 95.27 42.925 95.27 95.711 0 52.783-42.743 95.751-95.27 95.751zM564.232 576.793c-86.281 0-156.482 70.367-156.482 156.86 0 86.533 70.2 156.886 156.482 156.886 86.248 0 156.432-70.353 156.432-156.886 0-86.493-70.185-156.86-156.432-156.86zM220.179 829.404c-52.533 0-95.256-42.968-95.256-95.751 0-52.787 42.723-95.711 95.256-95.711 52.557 0 95.301 42.925 95.301 95.711 0 52.783-42.745 95.751-95.301 95.751zM220.179 576.793c-86.258 0-156.418 70.367-156.418 156.86 0 86.533 70.161 156.886 156.418 156.886 86.27 0 156.446-70.353 156.446-156.886 0-86.493-70.177-156.86-156.446-156.86z" />
<glyph unicode="&#xe625;" glyph-name="tab-rip-sessions" d="M699.868 221.979c0-5.56-4.209-10.58-9.449-10.054l-484.984 53.427c-7.472 1.090-13.2 6.792-13.2 14.718 0 8.13 5.952 13.978 13.636 14.838l482.824 53.266c6.214 0.539 9.072-2.426 10.467-6.127l0.71-4.088zM623.55 501.697c-34.881 3.435-70.929 6.961-97.626 25.603-29.961 20.915-44.527 59.141-44.527 116.909 0 6.243-5.076 11.312-11.308 11.312h-4.651c-6.208 0-11.279-5.068-11.279-11.336l0.057-9.456c3.469-142.885 86.229-151.169 159.237-158.449 59.264-5.916 110.402-11.045 112.456-85.216v-11.44c0-6.235 5.072-11.302 11.336-11.302h4.607c6.253 0 11.336 5.063 11.336 11.267l0.048 6.688c0 102.66-65.957 109.152-129.686 115.421zM807.324 387.306c-0.467 69.243-5.158 122.158-26.687 155.447-21.177 32.765-57.128 46.759-120.232 46.759-13.807 0-15.381 7.78-15.731 25.545-0.017 1.741-0.079 3.489-0.118 5.222-3.468 92.423-57.153 111.374-142.688 111.968l-15.397 0.017c-6.763 0-12.256-5.512-12.256-12.255v-4.651c0-6.787 5.486-12.276 12.256-12.276l15.298-0.023c103.539-0.699 109.196-40.307 111.927-59.363 0.848-6.069 1.104-12.906 1.391-20.111 1.064-28.175 2.358-63.257 45.318-63.257 97.024 0 116.821-29.113 117.733-173.061l0.019-11.834-0.019-12.127c0-6.787 5.514-12.276 12.274-12.276h4.645c6.741 0 12.256 5.486 12.256 12.276l0.017 12.115zM752.948 228.26c0-7.365-5.935-13.292-13.265-13.292s-13.269 5.927-13.269 13.292v100.868c0 7.34 5.942 13.277 13.269 13.277s13.265-5.942 13.265-13.277zM806.084 246.768c0-7.776-5.944-14.1-13.292-14.1-7.328 0-13.252 6.324-13.252 14.1v63.367c0 7.794 5.923 14.094 13.252 14.094 7.34 0 13.292-6.3 13.292-14.094z" />
<glyph unicode="&#xe626;" glyph-name="tab-global" d="M815.705 229.441c0-7.396-6.023-15.504-13.45-15.504-7.396 0-12.38 8.081-12.38 15.504s4.99 21.711 12.38 21.711c7.427 0 13.45-14.261 13.45-21.711zM737.186 513.137c0 37.934 19.978 79.199 19.978 79.199s12.38-26.158 18.579-53.028c6.169-26.722 8.274-64.054 8.274-64.054s-46.832-59.235-46.832 37.861zM620.118 648.164c-1.32-0.974-3.090-1.847-4.971-2.64-0.933-24.7-5.741-43.533-11.561-43.533-6.242 0-11.298 21.57-11.722 48.843-0.034 0.316-0.175 0.598-0.175 0.927v28.586c0 4.83-3.963 8.78-8.827 8.78h-12.737c-4.808 0-8.78 3.946-8.78 8.78v45.813c42.084-7.767 80.785-25.238 113.593-50.139-1.142-3.749-54.862-45.37-54.862-45.37zM820.219 481.068l-0.128-0.081c-0.791 169.153-138.145 306.056-307.514 306.056-169.106 0-306.318-136.541-307.524-305.398l-0.41 0.316c0-114.889-1.283-208.088 20.505-208.088 9.312 0 14.214 26.751 14.846 31.68 0.426 4.227 4.992 10.773 11.7 7.584 1.941-0.927 3.587-2.573 5.135-4.454 0.833-1.142 1.565-2.338 2.392-3.446 4.642-8.054 7.040-19.615 8.030-26.131 1.355-59.395 5.562-98.828 18.89-99.218 8.743-0.269 13.576 20.079 16.236 53.525 0.41 2.83 2.902 17.197 11.987 10.86 10.666-7.423 12.145-32.412 12.333-39.217 1.33-101.229 5.938-169.098 21.429-169.795 14.302-0.598 19.292 68.948 21.012 172.185 28.499-15.037 59.591-25.802 92.487-31.276 1.928-51.965 6.635-85.918 18.164-85.585 12.19 0.364 18.399 30.954 20.139 80.348 0.327-0.034 0.507 142.707 0.507 142.707 0 4.851 3.956 8.789 8.78 8.789 0 0 15.374 3.090 16.518 14.449 1.136 11.369-16.868 18.937-16.868 18.937-4.83 0-8.803 3.954-8.803 8.791v54.775c0 4.83-3.916 8.78-8.781 8.78h-15.86c-4.783 0-12.004 2.291-15.907 5.069l-47.271 33.467c-0.504 0.333-1.036 0.692-1.565 0.974-0.974-26.474-3.587-43.812-11.319-44-8.498-0.222-10.849 25.191-11.482 61.418l-19.125 19.172c0 0-0.040 0.050-0.081 0.089-1.705-68.102-2.071-142.705-12.474-142.655-11.987 0.105-13.529 96.289-13.65 170.020-0.175 0.248-0.41 0.457-0.529 0.739l-25.64 53.099c-2.067 4.334-3.817 11.847-3.817 16.706l19.657 25.965c0 4.83-23.451 11.948-28.071 10.523l-10.305-3.164c44.621 62.365 115.239 104.894 195.862 111.712v-36.523c0-4.783 3.211-11.052 7.181-13.791l16.471-11.581c3.963-2.766 11.133-5.042 16.001-5.042h13.018c4.83 0 8.78-3.195 8.78-7.095 0-3.906-2.714-9.935-6.023-13.5l-31.095-6.711c-3.352-3.482 10.217-19.454 15.049-19.454l12.556-0.040c4.808 0 8.733-3.942 8.733-8.805l0.175-21.288c-0.034-4.83 7.239-10.311 12.047-10.311h4.501c6.736-0.551 8.101-8.545 8.101-12.192 0-3.634-6.023-7.087-10.896-7.087h-37.887v-24.794c-3.854-2.919-24.794-9.631-24.794-14.449l-1.847-34.575c0-4.83-1.941-16.377-7.812-16.377-6.877 0-8.242 11.534-8.242 16.377v24.26c-1.179 10.708-30.813 20.12-45.435 5.515-23.406-23.414-7.275-49.622-3.468-52.702l34.992-28.059c3.728-3.043 10.806-5.515 15.645-5.515l58.415-0.034c4.83-0.034 12.286-1.847 16.589-4.104l80.463-41.47c4.266-2.244 7.772-8.007 7.772-12.871l-0.034-2.667c0-4.837-1.705-12.38-3.775-16.734l-28.462-44.801c-1.823-3.775-5.468-8.874-8.686-12.325-4.75-19.665 0.242-91.237-13.163-89.309-11.381 1.612-6.102 46.821-8.451 68.945 0 0-58.953-54.674-63.702-58.679v-57.137c115.957 3.66 215.682 71.374 264.891 169.059 2.15-40.426 6.486-65.771 15.372-65.49 18.517 0.608 17.479 91.895 17.479 205.262z" />
<glyph unicode="&#xe627;" glyph-name="left-arrow-l" d="M274.422 472.828c-0.848-0.864-1.632-1.691-2.323-2.533-0.402-0.461-0.753-0.947-1.101-1.444-0.186-0.23-0.353-0.44-0.543-0.691-5.16-6.956-8.251-15.54-8.275-24.901 0.024-9.349 3.116-17.903 8.275-24.869 0.196-0.321 0.452-0.636 0.687-0.945 0.307-0.364 0.598-0.763 0.937-1.141 0.711-0.897 1.495-1.777 2.377-2.654l186.059-186.043c16.344-16.34 42.854-16.34 59.214 0 16.36 16.352 16.384 42.848 0 59.232l-114.549 114.541 317.694 0.026c23.142-0.026 41.889 18.743 41.889 41.853 0 23.108-18.747 41.881-41.909 41.881h-317.674l114.549 114.53c16.36 16.376 16.36 42.907 0 59.263-16.36 16.37-42.869 16.364-59.214 0l-186.041-186.019c0 0-0.032-0.040-0.051-0.085z" />
<glyph unicode="&#xe628;" glyph-name="send-message-l" d="M142.897 812.619l777.549-365.114-777.549-361.733v274.646l570.863 88.771-570.863 81.383z" />
<glyph unicode="&#xe629;" glyph-name="add-attachment-l" d="M901.322 424.648c-0.358-0.434-0.854-0.553-1.19-0.99l0.121 0.020-306.204-309.628c-109.421-110.758-286.869-110.255-396.27 0.507-109.404 110.758-109.404 291.327 0 401.965l307.489 312.916c79.611 53.177 207.773 77.176 286.849-2.951 79.274-80.244 79.591-211.752 1.050-292.414l0.099-0.121-307.273-311.013c-49.818-50.332-130.341-50.332-180.060 0-49.701 50.352-49.701 131.945 0 182.228l163.165 165.353 0.614-0.693c0.317 0.394 0.654 0.788 1.070 1.129 19.789 20.104 51.78 20.104 71.49 0 19.809-19.791 19.809-52.297 0-72.294-0.436-0.325-0.832-0.654-1.268-0.971l0.216-0.109-163.281-165.242c-9.983-10.105-9.983-26.357 0-36.46 10.004-10.131 26.048-10.131 36.032 0l307.39 311.106c39.677 40.209 39.677 105.539 0 145.753-39.817 40.31-104.432 40.31-144.208 0l-307.251-311.092c-69.705-70.541-69.705-184.657 0-255.156 69.588-70.638 182.419-70.638 252.146 0l306.123 309.838 0.596-0.685c0.436 0.515 0.733 0.913 1.149 1.347 19.789 19.989 51.66 19.989 71.411 0 19.787-20.005 19.886-52.353-0.002-72.342z" />
<glyph unicode="&#xe800;" glyph-name="down-arrow-l" d="M511.422 871.847c-233.803 0-424.017-189.656-424.017-422.775 0-233.102 190.212-422.754 424.017-422.765 113.262 0 219.746 43.981 299.834 123.833 80.088 79.848 124.197 186.011 124.211 298.931-0.024 233.121-190.25 422.777-424.045 422.777zM511.422 112.661c-186.039 0-337.417 150.912-337.445 336.409 0 185.502 151.378 336.423 337.445 336.423 90.14 0 174.886-35 238.628-98.55 63.738-63.547 98.831-148.024 98.821-237.873 0.012-89.856-35.083-174.336-98.821-237.875s-148.482-98.534-238.628-98.534zM482.478 210.008c0.85-0.852 1.678-1.628 2.502-2.313 0.473-0.418 0.951-0.767 1.476-1.107 0.202-0.198 0.426-0.345 0.677-0.535 6.96-5.146 15.544-8.24 24.877-8.275 9.363 0.036 17.921 3.129 24.877 8.275 0.353 0.19 0.626 0.438 0.978 0.689 0.325 0.287 0.727 0.584 1.125 0.937 0.901 0.701 1.777 1.478 2.626 2.367l186.055 186.051c16.342 16.356 16.342 42.863 0 59.232-16.342 16.366-42.848 16.378-59.214 0l-114.549-114.553-0.026 317.688c0.026 23.138-18.745 41.921-41.873 41.921-23.073 0-41.871-18.783-41.871-41.944v-317.664l-114.526 114.553c-16.37 16.366-42.897 16.366-59.265 0-16.368-16.368-16.368-42.875 0-59.232l186.029-186.027c0 0 0.024-0.038 0.101-0.061z" />
<glyph unicode="&#xe801;" glyph-name="up-arrow-l" d="M512.576 24.153c233.803 0 424.017 189.656 424.017 422.775 0 233.102-190.212 422.754-424.017 422.765-113.26 0-219.744-43.981-299.832-123.833-80.088-79.848-124.197-186.011-124.211-298.933 0.024-233.119 190.25-422.775 424.043-422.775zM512.576 783.339c186.039 0 337.417-150.912 337.449-336.411 0-185.502-151.378-336.423-337.449-336.423-90.138 0-174.884 35-238.626 98.55-63.738 63.547-98.831 148.024-98.821 237.873-0.012 89.856 35.083 174.337 98.821 237.877s148.482 98.534 238.626 98.534zM541.524 685.992c-0.852 0.852-1.68 1.628-2.504 2.313-0.471 0.418-0.951 0.767-1.474 1.107-0.202 0.198-0.426 0.345-0.677 0.535-6.96 5.146-15.544 8.24-24.879 8.275-9.363-0.036-17.919-3.129-24.875-8.275-0.353-0.19-0.628-0.438-0.98-0.689-0.325-0.287-0.727-0.584-1.125-0.937-0.901-0.701-1.777-1.478-2.626-2.367l-186.055-186.051c-16.342-16.356-16.342-42.863 0-59.232 16.342-16.366 42.848-16.378 59.214 0l114.549 114.555 0.026-317.69c-0.026-23.138 18.745-41.921 41.871-41.921 23.077 0 41.873 18.783 41.873 41.944v317.666l114.522-114.555c16.368-16.366 42.897-16.366 59.265 0 16.368 16.37 16.368 42.875 0 59.232l-186.027 186.027c0.004 0-0.020 0.038-0.097 0.061z" />
<glyph unicode="&#xe900;" glyph-name="timeline-main" d="M844.041 316.841c-0.158-0.228-0.406-0.454-0.471-0.701-1.854-6.12-7.332-10.719-13.659-11.335-1.505-0.166-3.032-0.166-4.556-0.166-122.393 0-244.803 0-367.198 0-28.377 0-56.774 0-85.129 0-2.105 0-4.161 0.081-6.227 0.681-6.922 2.038-11.951 8.634-12.056 15.683-0.020 1.052-0.020 2.105-0.020 3.129 0 22.116 0 44.204 0 66.32 0 0.658-0.042 1.319 0 1.997 0.081 1.115-0.206 2.038-1.091 2.781-0.515 0.414-0.967 0.929-1.424 1.404-14.754 14.754-29.512 29.49-44.244 44.244-0.808 0.804-1.628 1.628-2.313 2.537-1.497 2.143-2.115 4.449-1.169 7.004 0.406 1.115 1.111 1.977 1.935 2.781 15.229 15.229 30.461 30.395 45.682 45.648 3.24 3.213 2.601 1.812 2.601 6.429 0.022 22.669 0.022 45.337 0.022 68.008 0 1.977 0.040 3.997 0.557 5.934 1.977 7.334 8.596 12.486 16.178 12.53 0.489 0 0.949 0 1.444 0 151.265 0 302.484 0 453.749 0 1.733 0 3.421 0.059 5.11-0.454 5.892-1.69 10.058-5.152 11.872-11.171 0.057-0.166 0.263-0.246 0.406-0.372 0.002-87.616 0.002-175.284 0.002-262.911zM168.431 183.073c0.866 0.763 0.945 1.838 1.068 2.862 1.363 10.739 5.36 20.403 12.104 28.854 9.416 11.787 21.571 19.040 36.492 21.516 16.794 2.777 32.19-0.784 45.832-10.963 12.080-9.030 19.62-21.126 22.342-35.985 3.173-17.063-0.17-32.79-10.513-46.781-8.78-11.872-20.549-19.288-35.012-22.421-1.858-0.39-3.73-0.662-5.585-1.052-0.557-0.101-1.052-0.39-1.567-0.638-3.625 0-7.257 0-10.86 0-0.432 0.208-0.824 0.495-1.26 0.576-1.955 0.414-3.934 0.703-5.894 1.133-16.853 3.686-29.716 13.005-38.579 27.846-4.035 6.758-6.514 14.096-7.501 21.946-0.125 1.010-0.038 2.143-1.068 2.824 0.002 3.415 0.002 6.863 0.002 10.282zM168.431 453.431c1.032 0.701 0.945 1.812 1.068 2.801 0.885 6.986 2.927 13.601 6.267 19.745 8.739 16.073 21.969 26.374 39.896 30.043 20.155 4.124 38.169-0.719 53.335-14.754 10.204-9.458 16.073-21.332 17.846-35.159 1.983-15.578-1.4-29.918-10.61-42.697-9.335-12.92-22.031-20.732-37.775-23.493-15.061-2.614-29.183 0.061-42.081 8.243-14.221 8.982-22.918 21.969-26.256 38.496-0.289 1.278-0.454 2.601-0.638 3.92-0.143 0.945-0.228 1.915-1.048 2.549-0.004 3.464-0.004 6.883-0.004 10.305zM234.169 777.532c0.535-0.186 1.070-0.434 1.61-0.471 13.225-1.569 24.546-7.111 34.044-16.384 8.986-8.78 14.568-19.434 16.693-31.797 5.033-29.674-11.458-56.138-37.032-65.784-8.305-3.151-16.923-4.449-25.737-3.749-27.535 2.163-47.934 21.512-53.381 46.038-0.386 1.773-0.572 3.567-0.881 5.358-0.143 0.824-0.143 1.731-1.048 2.187 0 3.625 0 7.253 0 10.878 0.654 0.329 0.866 0.971 0.945 1.648 0.125 0.848 0.166 1.691 0.329 2.561 2.353 13.678 8.495 25.323 18.901 34.62 9.129 8.121 19.761 13.023 31.964 14.425 0.537 0.040 1.050 0.287 1.604 0.471 3.989 0 7.99 0 11.989 0zM211.215 642.158c2.597 0.454 30.457 0.493 33.604 0.125 0.105-0.475 0.23-0.99 0.271-1.525 0.059-0.763 0.040-1.527 0.040-2.309 0-36.767 0-73.53-0.020-110.293 0-1.216-0.059-2.432-0.081-3.793-3.852-0.456-7.56-0.166-11.228-0.228-3.712-0.061-7.445-0.020-11.155-0.020-3.686 0.020-7.396-0.042-11.205 0.061-0.101 0.763-0.188 1.315-0.224 1.856-0.026 0.761 0 1.527 0 2.288 0 36.682 0 73.342 0 110.004-0.002 1.24-0.002 2.474-0.002 3.835zM211.251 372.071c3.591 0.309 31.237 0.248 33.671-0.065 0.061-0.491 0.166-1.026 0.166-1.563 0.040-0.662 0.040-1.343 0.040-2 0-36.866 0-73.734 0-110.6 0-1.137 0-2.29 0-3.524-0.572-0.127-1.024-0.329-1.436-0.329-10.391 0-20.777 0-31.164 0-0.289 0-0.535 0.077-1.010 0.121-0.105 0.515-0.267 1.030-0.303 1.567-0.042 0.739 0 1.521 0 2.268 0 36.785 0 73.548 0 110.313 0 1.216 0.036 2.452 0.036 3.813z" />
<glyph unicode="&#xe901;" glyph-name="light-and-dark" d="M797.708 527.403c29.227-22.651 54.732-42.434 86.86-67.348-29.858-18.26-52.422-32.11-79.355-48.637 19.826-34.331 38.246-66.255 59.228-102.503-36.375-3.918-62.773-6.677-93.4-9.935 5.568-37.547 10.282-69.531 16.449-111.281-35.117 7.455-62.731 13.33-92.324 19.636-8.556-35.876-16.134-67.737-26.008-109.039-28.046 20.815-48.883 36.315-75.675 56.179-21.593-28.436-42.62-56.076-68.127-89.728-17.289 28.644-31.988 53-47.981 79.549-31.649-17.479-59.614-32.936-94.364-52.139-6.449 34.66-11.266 60.727-16.709 90.302-38.868-6.514-73.37-12.24-115.373-19.292 10.62 33.76 18.658 59.23 28.341 90.019-35.547 12.304-68.313 23.659-108.003 37.405 20.567 26.729 36.767 47.789 55.908 72.664-30.064 24.029-56.936 45.521-88.88 71.080 31.322 18.834 54.49 32.722 79.488 47.728-19.375 34.127-36.745 64.651-58.673 103.289 35.858 2.965 61.884 5.13 93.703 7.766-5.090 39.261-9.582 73.819-15.085 116.413 32.711-9.188 59.97-16.855 91.318-25.636 9.063 35.757 17.059 67.184 27.301 107.617 27.284-19.702 48.243-34.828 74.685-53.91 23.001 30.292 45.504 59.929 71.157 93.642 15.007-30.583 27.787-56.631 42.497-86.719 32.045 18.258 59.885 34.168 95.212 54.365 6.635-33.138 11.827-58.798 17.986-89.546 36.811 5.896 71.181 11.397 112.335 17.99-8.859-33.919-16.178-61.82-24.004-91.661 35.236-10.759 66.746-20.403 103.636-31.694-18.759-27.531-34.974-51.356-52.143-76.578zM744.377 446.988c-0.168 128.139-109.845 239.055-233.904 236.661-122.329-2.367-227.496-109.592-229.307-233.775-1.878-127.606 107.062-241.88 230.172-241.49 125.851 0.458 233.24 110.34 233.038 238.604zM676.347 373.504c-42.267-93.148-124.702-129.588-212.859-101.435-88.062 28.108-139.763 117.918-120.396 209.027 17.662 82.968 90.966 147.369 175.459 140.324-94.157-66.235-112.973-152.295-61.476-225.745 47.793-68.17 122.969-80.619 219.273-22.17z" />
<glyph unicode="&#xe902;" glyph-name="in-jeopardy" d="M89.938 444.871c1.303 106.559 36.436 200.342 107.114 280.289 50.275 56.869 111.864 97.030 183.884 121.109 20.446 6.835 41.322 11.991 62.577 15.52 27.25 4.526 54.704 6.562 82.334 5.734 15.362-0.46 30.688-1.587 45.912-3.72 70.145-9.834 134.156-35.167 191.395-76.929 72.229-52.695 123.207-121.357 152.681-205.842 8.259-23.675 14.043-47.972 17.871-72.759 4.298-27.814 5.702-55.783 4.336-83.849-2.765-57.013-16.117-111.467-41.233-162.784-41.295-84.366-103.717-148.448-186.713-192.369-33.754-17.862-69.489-30.421-106.87-38.322-15.198-3.211-30.508-5.629-45.943-7.184-19.25-1.939-38.565-2.666-57.903-1.915-61.935 2.395-120.719 17.176-176.12 45.113-97.175 49.009-171.937 133.457-208.708 235.809-9.18 25.549-15.746 51.763-19.779 78.622-3.157 21.031-4.775 42.164-4.835 63.476zM514.179 108.085c18.61 0.168 37.048 1.672 55.381 4.647 23.516 3.821 46.373 10.024 68.513 18.787 55.074 21.801 101.386 55.696 138.634 101.699 47.342 58.463 72.005 125.542 74.835 200.658 0.658 17.438-0.305 34.826-2.399 52.163-2.607 21.609-7.251 42.756-14.071 63.413-17.412 52.759-46.258 98.375-86.167 136.966-37.381 36.149-80.85 62.282-130.311 78.377-25.396 8.265-51.461 13.302-78.078 15.328-15.168 1.155-30.36 1.39-45.581 0.426-14.564-0.921-29.027-2.537-43.347-5.245-30.801-5.825-60.357-15.52-88.28-29.815-76.596-39.207-131.254-98.657-163.464-178.489-13.93-34.525-21.201-70.587-22.865-107.754-0.553-12.341-0.382-24.695 0.479-37.042 1.125-16.146 3.258-32.13 6.714-47.934 14.813-67.731 47.274-125.706 97.66-173.191 65.132-61.385 143.035-91.659 232.343-92.994zM450.213 371.939c-0.864-0.143-1.462-0.327-2.062-0.329-24.227-0.014-48.455-0.012-72.651-0.012-0.333 0.588-0.745 0.982-0.755 1.384-0.176 8.541-1.081 17.051-0.626 25.622 0.854 16.077 5.259 31.146 12.437 45.474 5.631 11.242 12.738 21.504 20.708 31.203 5.229 6.362 10.49 12.702 15.562 19.189 4.981 6.37 9.462 13.090 12.906 20.446 2.571 5.492 4.377 11.195 4.752 17.295 0.234 3.817 0.046 7.61-0.834 11.329-2.006 8.495-6.928 14.817-14.536 19.034-6.047 3.351-12.625 4.983-19.442 5.736-12.506 1.384-24.606-0.751-36.517-4.344-8.368-2.525-16.354-5.926-23.758-10.622-0.64-0.406-1.341-0.711-1.866-0.988-0.39 0.182-0.555 0.224-0.673 0.321s-0.228 0.24-0.271 0.382c-6.114 19.476-12.225 38.954-18.321 58.433-0.184 0.59-0.23 1.226-0.319 1.725 0.63 1.668 2.149 2.004 3.357 2.658 11.611 6.281 23.926 10.763 36.642 14.187 22.69 6.11 45.805 8.146 69.19 6.51 17.18-1.202 33.802-4.977 49.203-13.056 23.938-12.561 38.96-31.938 43.87-58.635 3.405-18.515 1.159-36.587-5.819-54.064-4.496-11.264-10.824-21.464-18.103-31.108-6.881-9.117-14.53-17.576-22.203-26.014-6.302-6.928-12.048-14.279-16.82-22.364-8.824-14.952-13.233-31.073-12.831-48.473 0.069-3.009 0.026-6.019 0.016-9.028-0.006-0.471-0.115-0.941-0.236-1.894zM580.145 618.699c5.267 0.711 54.185 0.945 85.883 0.454 1.242-0.020 2.484-0.166 3.815-0.261 0.123-0.802 0.325-1.418 0.293-2.024-4.088-80.936-8.196-161.869-12.31-242.999-1.145-0.174-2.042-0.434-2.939-0.434-19.793-0.024-39.585-0.020-59.378-0.012-0.622 0-1.248 0.081-2.171 0.143-0.719 1.915-0.697 3.953-0.816 5.94-0.364 6.005-0.666 12.013-0.974 18.022-0.743 14.387-1.452 28.775-2.216 43.161-0.808 15.176-1.668 30.35-2.5 45.523-0.364 6.639-0.727 13.278-1.068 19.919-0.759 14.861-1.466 29.726-2.26 44.587-1.087 20.393-2.248 40.782-3.343 61.173-0.117 2.197-0.016 4.403-0.016 6.81zM624.989 345.273c5.625-0.065 11.102-0.899 16.414-2.545 13.231-4.104 23.142-12.29 28.975-24.905 7.289-15.764 7.841-31.898 0.689-47.807-7.334-16.309-20.448-25.23-38.019-27.888-8.949-1.355-17.753-0.701-26.208 2.345-17.604 6.332-27.84 19.199-31.576 37.28-2.29 11.092-1.513 22.11 2.785 32.649 6.665 16.34 18.8 26.236 36.129 29.605 3.549 0.691 7.202 0.858 10.81 1.266zM359.945 293.412c-0.028 8.356 1.519 16.388 5.138 23.938 6.312 13.163 16.542 21.775 30.609 25.699 10.632 2.965 21.326 2.781 31.833-0.454 13.972-4.298 23.948-13.334 29.599-26.804 5.942-14.162 6.52-28.684 0.907-43.042-6.94-17.759-20.327-27.666-39.057-30.607-7.954-1.25-15.845-0.842-23.504 1.442-18.678 5.572-29.779 18.319-34.212 37.102-0.436 1.846-0.737 3.734-0.919 5.617-0.23 2.359-0.271 4.738-0.394 7.109z" />
<glyph unicode="&#xe903;" glyph-name="delete-item" d="M513.61 869.375c-234.007 0-424.148-189.701-424.148-422.912s190.139-422.94 424.148-422.94c113.304 0 219.827 44.028 299.856 123.89 80.139 79.965 124.264 186.093 124.391 299.050-0.127 233.211-190.448 422.912-424.247 422.912zM513.61 109.969c-186.112 0-337.593 150.896-337.593 336.494 0 185.564 151.453 336.494 337.593 336.494 90.197 0 174.916-34.97 238.711-98.53 63.672-63.617 98.896-148.114 98.769-237.964 0.125-89.878-35.097-174.383-98.769-237.996-63.795-63.528-148.512-98.498-238.711-98.498zM594.136 610.008l-84.19-84.194-82.14 82.114c-22.805 22.825-59.493 23.126-82.29 0.325-22.801-22.835-22.502-59.503 0.297-82.3l82.116-82.13-83.415-83.453c-22.801-22.789-23.126-59.475-0.301-82.239 22.801-22.839 59.493-22.524 82.29 0.273l83.415 83.445 85.521-85.507c22.801-22.815 59.461-23.1 82.263-0.299 22.823 22.823 22.526 59.489-0.275 82.277l-85.493 85.505 84.166 84.22c22.801 22.797 23.126 59.442 0.297 82.261-22.819 22.827-59.483 22.502-82.261-0.297z" />
<glyph unicode="&#xe904;" glyph-name="check-mark-done" d="M511.933 869.694c-232.979 0-422.47-189.010-422.47-421.322 0-232.373 189.491-421.347 422.47-421.347 113.016 0 219.14 43.816 298.818 123.431 79.908 79.585 123.787 185.419 123.787 297.917 0 232.313-189.555 421.322-422.605 421.322zM511.933 113.116c-185.316 0-336.151 150.354-336.217 335.258 0 184.877 150.902 335.195 336.217 335.195 89.906 0 174.361-34.869 237.794-98.076 63.686-63.399 98.684-147.569 98.561-237.12 0.125-89.583-34.873-173.718-98.561-237.114-63.433-63.205-147.89-98.142-237.794-98.142zM693.702 638.692l-259.619-259.488-103.656 103.782-52.085-103.782 155.741-155.866 311.573 311.569z" />
<glyph unicode="&#xe905;" glyph-name="photos-delete-l" d="M96.694 19.322h587.091v708.139h-587.091v-708.139zM136.838 679.010h506.805v-497.381h-506.805v497.381zM368.040 897.586l-16.804-151.267h40.38l10.991 98.694 503.737-56.011-54.999-494.35-150.591 16.741v-163.301l172.565-19.171 78.274 703.781zM490.472 581.552l47.619-47.619-248.129-248.129-47.619 47.619 248.129 248.129zM290.010 581.545l248.129-248.129-47.619-47.619-248.129 248.129 47.619 47.619z" />
<glyph unicode="&#xe906;" glyph-name="photos-add-l" d="M96.688 19.322h587.091v708.139h-587.091v-708.139zM136.832 679.010h506.805v-497.381h-506.805v497.381zM368.034 897.586l-16.804-151.267h40.38l10.991 98.694 503.737-56.011-54.999-494.35-150.591 16.741v-163.301l172.565-19.171 78.274 703.781zM356.558 586.795h67.342v-306.253h-67.342v306.253zM237.114 467.343h306.239v-67.342h-306.239v67.342z" />
<glyph unicode="&#xe907;" glyph-name="ghosting-sessions-visible" d="M209.696 179.371l-119.083-120.693 52.167-51.469 87.206 88.385c-20.284 14.172-20.29 83.776-20.29 83.778zM773.065 646.012l160.322 162.489-52.167 51.469-146.594-148.575c14.409-18.812 27.505-40.083 38.439-65.383zM735.149 710.554c14.255-18.689 27.117-39.534 37.949-64.623-9.887 23.231-22.696 44.917-37.949 64.623zM773.179 645.747l-542.964-550.256c3.427-2.674 7.408-4.211 12.076-4.211 32.592 0 32.778 73.342 65.183 73.342 48.231 0 50.937-73.342 97.779-73.342 50.43 0 49.271 73.342 97.781 73.342 48.512 0 48.906-73.342 96.852-73.342 46.777 0 50.386 73.342 98.712 73.342 32.827 0 32.588-73.342 65.183-73.342 32.592 0 32.592 72.496 32.592 108.754v331.34c0 40.576-8.265 79.228-23.195 114.373zM212.305 142.064c1.278-10.064 3.191-19.634 6.029-27.713-2.844 8.376-4.75 18.246-6.029 27.713zM218.334 114.35c0.252-0.715 0.503-1.432 0.768-2.121-0.259 0.699-0.523 1.396-0.768 2.121zM516.116 489.548c-8.232 11.85-13.080 26.226-13.080 41.75 0 40.499 32.833 73.336 73.336 73.336 15.172 0 29.256-4.619 40.952-12.512l117.4 118.986c-53.725 69.073-137.62 113.529-231.687 113.529-162.008 0-293.341-131.248-293.341-293.401v-330.483c0-6.295 0.004-13.688 0.17-21.593l306.251 310.387zM356.368 604.634c40.495 0 73.334-32.837 73.334-73.336 0-40.506-32.839-73.334-73.334-73.334-40.508 0-73.334 32.827-73.334 73.334 0 40.499 32.825 73.336 73.334 73.336z" />
<glyph unicode="&#xe908;" glyph-name="ghosting-sessions-invisible" d="M207.121 194.789v331.338c0 161.964 131.664 293.264 293.341 293.264 162.006 0 293.341-131.248 293.341-293.401v-330.483c0-36.488 0-109.473-32.596-109.473-32.592 0-32.778 73.342-65.183 73.342-48.233 0-50.937-73.342-97.779-73.342-50.43 0-49.273 73.342-97.783 73.342-48.512 0-48.904-73.342-96.852-73.342-46.777 0-50.384 73.342-98.712 73.342-32.827 0-32.588-73.342-65.181-73.342s-32.596 72.496-32.596 108.754zM647.13 452.718c40.506 0 73.334 32.827 73.334 73.334 0 40.499-32.827 73.336-73.334 73.336-40.495 0-73.334-32.837-73.334-73.336-0.002-40.506 32.837-73.334 73.334-73.334zM427.125 452.718c40.502 0 73.336 32.827 73.336 73.334 0 40.499-32.833 73.336-73.336 73.336-40.499 0-73.334-32.837-73.334-73.336 0-40.506 32.835-73.334 73.334-73.334z" />
<glyph unicode="&#xe909;" glyph-name="tabs-settings" d="M614.929 201.854c0 54.646-44.323 98.971-98.985 98.971-54.658 0-98.958-44.325-98.958-98.971 0-54.674 44.299-98.987 98.958-98.987 54.662 0 98.985 44.313 98.985 98.987zM614.929 447.029c0 54.674-44.323 98.973-98.985 98.973-54.658 0-98.958-44.297-98.958-98.973 0-54.654 44.299-98.942 98.958-98.942 54.662 0.002 98.985 44.288 98.985 98.942zM614.929 692.213c0 54.708-44.323 98.981-98.985 98.981-54.658 0-98.958-44.274-98.958-98.981 0-54.623 44.299-98.936 98.958-98.936 54.662 0 98.985 44.313 98.985 98.936z" />
<glyph unicode="&#xe90a;" glyph-name="tabs-global" d="M886.746 178.314c0-9.149-7.431-19.121-16.596-19.121-9.133 0-15.289 9.973-15.289 19.121 0 9.161 6.154 26.767 15.289 26.767 9.165 0 16.596-17.622 16.596-26.767zM892.326 488.802l-0.147-0.087c-0.978 208.743-170.463 377.626-379.439 377.626-208.68 0-377.989-168.483-379.466-376.836l-0.501 0.386c-0.002-141.779-1.604-256.792 25.299-256.792 11.49 0 17.545 33.010 18.297 39.094 0.525 5.215 6.156 13.288 14.439 9.369 2.405-1.121 4.454-3.165 6.332-5.492 1-1.412 1.951-2.874 2.953-4.282 5.73-9.945 8.683-24.198 9.911-32.221 1.676-73.292 6.883-121.931 23.3-122.43 10.787-0.329 16.742 24.778 20.046 66.047 0.503 3.49 3.579 21.219 14.794 13.401 13.163-9.161 14.99-39.991 15.241-48.391 1.65-124.912 7.33-208.65 26.428-209.516 17.644-0.715 23.802 85.103 25.929 212.467 35.165-18.557 73.556-31.821 114.125-38.591 2.379-64.12 8.186-106.011 22.425-105.601 15.041 0.454 22.724 38.193 24.851 99.122 0.402-0.036 0.626 176.092 0.626 176.092 0 5.982 4.878 10.848 10.836 10.848 0 0 18.971 3.803 20.399 17.846 1.4 14.027-20.801 23.35-20.801 23.35-5.954 0-10.858 4.882-10.858 10.852v67.584c0 5.942-4.859 10.836-10.84 10.836h-19.571c-5.902 0-14.815 2.816-19.648 6.259l-58.336 41.269c-0.6 0.41-1.278 0.826-1.953 1.178-1.173-32.665-4.453-54.060-13.938-54.278-10.462-0.275-13.367 31.075-14.168 75.786l-23.6 23.639c0 0-0.050 0.061-0.075 0.113-2.101-84.055-2.553-176.094-15.392-176.031-14.792 0.127-16.693 118.792-16.844 209.767-0.2 0.303-0.501 0.566-0.65 0.915l-31.635 65.518c-2.551 5.346-4.708 14.619-4.708 20.625l24.253 32.037c0 5.958-28.931 14.742-34.636 12.989l-12.714-3.918c55.060 76.956 142.18 129.428 241.688 137.826v-45.050c0-5.904 3.981-13.639 8.836-17.042l20.322-14.294c4.906-3.417 13.742-6.219 19.749-6.219h16.065c5.958 0 10.812-3.943 10.812-8.758 0-4.819-3.349-12.262-7.431-16.655l-38.367-8.271c-4.155-4.296 12.611-23.978 18.569-24.002l15.493-0.051c5.93 0 10.763-4.866 10.763-10.862l0.202-26.266c-0.028-5.958 8.933-12.726 14.863-12.726h5.532c8.309-0.662 10.012-10.523 10.012-15.065 0-4.506-7.431-8.723-13.415-8.723 0 0-33.134 0-46.728 0v-30.609c-4.754-3.601-30.607-11.886-30.607-17.844l-2.274-42.675c0-5.954-2.403-20.207-9.636-20.207-8.483 0-10.187 14.253-10.187 20.207v29.936c-1.454 13.189-38.042 24.828-56.063 6.81-28.882-28.894-8.962-61.256-4.282-65.033l43.176-34.624c4.627-3.745 13.338-6.81 19.296-6.81l72.078-0.028c5.958-0.024 15.168-2.302 20.472-5.069l99.284-51.168c5.253-2.763 9.61-9.895 9.61-15.869l-0.024-3.288c0-5.97-2.101-15.281-4.659-20.646l-35.137-55.284c-2.252-4.672-6.758-10.925-10.707-15.207-5.861-24.267 0.297-112.6-16.243-110.22-14.043 2.016-7.532 57.748-10.414 85.067 0 0-72.728-67.463-78.585-72.407v-70.5c143.083 4.514 266.139 88.070 326.858 208.611 2.65-49.877 8.004-81.15 18.967-80.813 22.847 0.753 21.544 113.416 21.544 253.279zM645.407 694.994c-1.628-1.202-3.803-2.292-6.108-3.256-1.153-30.496-7.083-53.719-14.267-53.719-7.707 0-13.938 26.59-14.465 60.242-0.024 0.386-0.202 0.723-0.202 1.137v35.276c0 5.946-4.906 10.836-10.886 10.836h-15.718c-5.93 0-10.836 4.87-10.836 10.826v56.532c51.931-9.582 99.683-31.132 140.151-61.89-1.42-4.629-67.669-55.983-67.669-55.983zM789.864 528.375c0 46.785 24.653 97.73 24.653 97.73s15.293-32.287 22.924-65.407c7.61-32.974 10.208-79.036 10.208-79.036s-57.786-73.080-57.786 46.714z" />
<glyph unicode="&#xe90b;" glyph-name="tabs-stash" d="M825.683 714.648v135.713h-617.878v-135.713c-6.469-1.798-10.81-5.982-10.81-11.111s4.342-9.333 10.81-11.137v-636.732h617.852v636.732c6.495 1.804 10.812 6.005 10.812 11.137s-4.318 9.313-10.787 11.111zM816.944 406c-39.641 22.627-125.889-98.047-192.159-60.202-68.751 39.28-145.37 3.953-168.96-11.753-23.574-15.715-72.704-33.435-141.478-43.246-54.561-7.822-86.783-39.094-97.783-51.632v452.257h600.381v-285.425zM816.944 715.628h-600.381v125.998h600.381v-125.998zM269.070 301.404c16.952 0 30.637 13.718 30.637 30.762 0 16.889-13.684 30.615-30.637 30.615-17.018 0-30.764-13.726-30.764-30.615 0-17.044 13.746-30.762 30.764-30.762zM451.501 453.986c10.351-1.062 19.573 6.437 20.636 16.792 1.062 10.335-6.439 19.577-16.792 20.642-10.331 1.060-19.579-6.461-20.64-16.796-1.064-10.355 6.465-19.575 16.796-20.638zM706.726 448.291c10.248 0 19.666 3.448 27.181 9.238-0.069-0.85-0.127-1.701-0.127-2.571 0-16.943 13.722-30.726 30.72-30.726 16.96 0 30.68 13.783 30.68 30.726 0 17.065-13.722 30.805-30.68 30.805-5.261 0-10.206-1.321-14.53-3.646 0.844 3.429 1.299 7.014 1.299 10.707 0 24.643-19.896 44.585-44.541 44.585-24.649 0-44.589-19.939-44.589-44.585 0-24.629 19.937-44.533 44.587-44.533zM502.665 395.54c9.882-1.018 18.963 3.904 23.764 11.868 6.871-6.572 15.887-11.010 26.097-12.058 24.665-2.529 46.492 15.338 49.003 39.772 2.509 24.422-15.221 46.393-39.89 48.93-24.479 2.515-46.256-15.4-48.766-39.819-0.014-0.143-0.020-0.287-0.034-0.43-1.628 0.527-3.333 0.897-5.106 1.079-13.621 1.4-25.723-8.549-27.121-22.166-1.4-13.645 8.432-25.776 22.053-27.177zM343.949 366.262c9.99-1.026 19.395 2.329 26.384 8.467 6.623-14.588 20.593-25.378 37.66-27.133 25.564-2.626 48.397 15.992 51.028 41.578 2.622 25.517-15.952 48.344-41.517 50.97-16.98 1.745-32.774-5.869-42.241-18.65-5.591 7.525-14.16 12.793-24.218 13.825-19.127 1.969-36.068-11.965-38.027-31.021-1.957-19.034 11.805-36.070 30.93-38.037zM661.199 371.37c12.005 0 21.734 9.729 21.734 21.783 0 12.031-9.729 21.787-21.734 21.787-12.058 0-21.837-9.757-21.837-21.787 0-12.054 9.779-21.783 21.837-21.783zM235.134 759.601h563.242v-12.815h-563.242v12.815zM235.134 786.243h563.242v-12.815h-563.242v12.815zM235.134 813.196h563.242v-12.817h-563.242v12.817z" />
<glyph unicode="&#xe90c;" glyph-name="tabs-rip-sessions" d="M314.039 270.727l-26.893 242.227c-61.553-3.226-134.821-26.567-134.821-26.567l26.939-188.693 53.921-53.908v-161.741c0 0 35.418-26.967 67.384-26.967 31.578 0 67.386 26.967 67.386 26.967v152.766l-53.915 35.915zM323.374 493.444c0 0 107.57 26.945 188.721 26.945 80.619 0 188.695-26.945 188.695-26.945l-26.975-215.66-80.85-53.923v-188.689c0 0-40.701-26.967-80.852-26.967-40.706 0-80.9 26.967-80.9 26.967v188.689l-80.884 53.923-26.955 215.66zM377.852 693.413c-0.285-3.728-0.563-7.459-0.563-11.262 0-74.429 60.349-134.81 134.806-134.81 74.421 0 134.784 60.38 134.784 134.81 0 3.803-0.256 7.534-0.576 11.262h-268.45zM351.699 702.798c-5.999 5.734-9.672 13.615-9.672 22.477v35.991c-6.051 1.075-12.276 1.765-18.654 1.765-59.62 0-107.942-48.229-107.942-107.704 0-59.491 48.32-107.734 107.942-107.734 26.624 0 50.927 9.662 69.753 25.606-26.418 28.743-42.798 66.833-42.798 108.956 0 7.008 0.495 13.876 1.371 20.644zM709.953 270.727l26.889 242.227c61.559-3.226 134.823-26.567 134.823-26.567l-26.937-188.693-53.915-53.908v-161.741c0 0-35.424-26.967-67.384-26.967-31.586 0-67.388 26.967-67.388 26.967v152.766l53.912 35.915zM672.295 702.798c5.999 5.734 9.679 13.615 9.679 22.477v35.991c6.047 1.075 12.274 1.765 18.646 1.765 59.626 0 107.942-48.229 107.942-107.704 0-59.491-48.318-107.734-107.942-107.734-26.616 0-50.917 9.662-69.753 25.606 26.418 28.743 42.796 66.833 42.796 108.956 0 7.008-0.487 13.876-1.369 20.644zM641.973 794.5c-4.031 36.452-42.715 66.625-94.361 76.319v3.943c0 13.152-16.287 24.289-35.519 24.289-19.933 0-35.527-10.046-35.527-22.859v-5.409c-51.194-9.709-89.674-39.809-94.295-76.285h259.702zM648.295 776.417h-272.412c-3.266 0-5.912-1.789-5.912-3.967v-47.175c0-2.177 2.646-3.928 5.912-3.928h272.412c3.238 0 5.91 1.753 5.91 3.928v47.175c0 2.179-2.674 3.967-5.91 3.967z" />
<glyph unicode="&#xe90d;" glyph-name="tabs-social-weedia-plus1" d="M702.030 648.971h-410.729c-4.926 0-8.923-2.65-8.923-5.924v-71.173c0-3.272 3.997-5.924 8.923-5.924h410.731c4.91 0 8.941 2.652 8.941 5.924v71.173c-0.002 3.274-4.033 5.924-8.943 5.924zM692.523 676.233c-6.069 55.007-64.407 100.514-142.275 115.128v5.894c0 19.872-24.542 36.668-53.593 36.668-30.037 0-53.561-15.168-53.561-34.501v-8.135c-77.147-14.659-135.18-60.036-142.166-115.054h391.594zM654.132 231.304l-0.012 84.414h-46.688c-32.623-19.014-70.379-30.116-110.776-30.116-58.53 0-111.772 22.89-151.374 60.121-73.882-11.741-133.148-26.58-133.148-26.58l28.074-224.418h512.937l17.075 136.564-116.088 0.016zM569.695 490.461h84.426v33.382h-341.877c-0.525-5.611-0.814-11.262-0.814-17.006 0-102.113 83.1-185.215 185.227-185.215 25.937 0 50.622 5.401 73.047 15.063l-0.008 153.776zM621.473 438.689h84.426l-0.004 84.849h71.207l-0.016-84.849 84.875-0.004-0.008-71.199h-84.855v-84.426l-71.199 0.016-0.004 84.41h-84.418l-0.004 71.203z" />
<glyph unicode="&#xe90e;" glyph-name="tabs-rip-tool" d="M786.434 117.838c0-8.125-6.144-15.459-13.799-14.693l-708.454 78.046c-10.919 1.59-19.29 9.927-19.29 21.498 0 11.876 8.697 20.411 19.921 21.674l705.292 77.81c9.079 0.788 13.257-3.551 15.289-8.949l1.040-5.982v-169.406zM674.955 526.446c-50.956 5.015-103.614 10.171-142.611 37.401-43.761 30.548-65.045 86.396-65.045 170.776 0 9.121-7.416 16.531-16.515 16.531h-6.794c-9.075 0-16.475-7.408-16.475-16.556l0.087-13.813c5.076-208.72 125.964-220.829 232.618-231.454 86.565-8.646 161.269-16.13 164.268-124.488v-16.701c0-9.111 7.412-16.507 16.556-16.507h6.724c9.133 0 16.556 7.396 16.556 16.457l0.077 9.761c0 149.96-96.349 159.445-189.448 168.594zM943.405 359.35c-0.677 101.146-7.528 178.443-38.987 227.071-30.932 47.867-83.455 68.299-175.629 68.299-20.167 0-22.469 11.363-22.976 37.32-0.028 2.551-0.109 5.092-0.178 7.622-5.069 135.008-83.493 162.689-208.431 163.553l-22.494 0.024c-9.883 0-17.899-8.047-17.899-17.895v-6.796c0-9.907 8.016-17.931 17.899-17.931l22.348-0.040c151.247-1.014 159.506-58.877 163.497-86.717 1.238-8.861 1.612-18.848 2.034-29.381 1.559-41.16 3.438-92.402 66.198-92.402 141.726 0 170.65-42.523 171.988-252.803l0.036-17.291-0.036-17.721c0-9.911 8.049-17.931 17.931-17.931h6.79c9.846 0 17.907 8.020 17.907 17.931l0.024 17.695-0.022 17.394zM863.969 127.009c0-10.751-8.665-19.408-19.373-19.408v0c-10.707 0-19.389 8.657-19.389 19.408v147.347c0 10.711 8.681 19.397 19.389 19.397v0c10.707 0 19.373-8.685 19.373-19.397v-147.347zM941.595 154.047c0-11.357-8.689-20.591-19.412-20.591v0c-10.703 0-19.357 9.234-19.357 20.591v92.568c0 11.373 8.653 20.585 19.357 20.585v0c10.723 0 19.412-9.21 19.412-20.585v-92.568z" />
<glyph unicode="&#xe90f;" glyph-name="contacts_add" d="M749.299 228.3c-1.281-0.172-12.496-1.628-26.050-1.628-11.365 0-20.991 1.026-24.588 1.472v-75.447h-432.197v594.267h432.195v-75.447c3.597 0.432 13.251 1.485 24.588 1.485 13.597 0 24.794-1.513 26.050-1.688 1.173-0.172 2.256-0.531 3.385-0.798v157.476c0 29.835-24.178 54.024-54.022 54.024h-432.221c-29.874 0-54.040-24.19-54.040-54.024v-756.383c0-29.874 24.166-54.022 54.040-54.022h432.223c29.876 0 54.022 24.148 54.022 54.022v157.49c-1.157-0.271-2.244-0.66-3.385-0.798zM599.777 828.72c7.427 0 13.51-6.043 13.51-13.51 0-7.451-6.098-13.494-13.51-13.494-7.455 0-13.508 6.043-13.508 13.494 0 7.467 6.055 13.51 13.508 13.51zM422.981 827.991h119.075c7.511 0 13.524-6.041 13.524-13.494 0-7.469-6.013-13.508-13.524-13.508h-119.075c-7.481 0-13.506 6.041-13.506 13.508-0.002 7.453 5.997 13.494 13.506 13.494zM482.518 44.605c-22.379 0-40.514 18.149-40.514 40.512 0 22.336 18.135 40.477 40.514 40.477s40.528-18.139 40.528-40.477c0.016-22.364-18.149-40.512-40.528-40.512zM720.193 653.212c-112.333 0-203.388-91.073-203.388-203.406 0-112.349 91.055-203.386 203.388-203.386s203.431 91.037 203.431 203.386c0 112.333-91.069 203.406-203.431 203.406zM720.193 293.877c-86.127 0-155.919 69.806-155.919 155.931 0 86.129 69.79 155.933 155.919 155.933 86.141 0 155.947-69.802 155.947-155.933 0.002-86.115-69.806-155.931-155.947-155.931zM628.768 476.729h64.207v64.52h54.153v-64.52l64.536-0.030-0.016-54.125h-64.52v-64.205h-54.153v64.205h-64.207v54.155z" />
<glyph unicode="&#xe910;" glyph-name="reccomended_people" d="M346.134 791.842c-15.053 6.97-31.744 10.959-49.429 10.959-17.683 0-34.402-3.991-49.413-10.959h98.843zM392.61 787.833c-7.507 31.114-44.341 52.965-90.080 55.641l-0.444 3.373c-1.454 11.43-16.758 19.248-33.424 17.137-17.23-2.206-29.639-12.623-28.207-23.748l0.586-4.643v-0.032c-43.204-14.033-73.201-44.337-73.175-76.4l224.743 28.672zM400.061 772.852l-235.708-30.064c-2.858-0.362-4.926-2.179-4.688-4.060l5.211-40.806c0.24-1.921 2.696-3.151 5.554-2.773l235.708 30.076c2.805 0.347 4.926 2.181 4.686 4.086l-5.223 40.804c-0.226 1.88-2.737 3.108-5.54 2.737zM179.287 673.563c0.051-0.37 0.079-0.479 0.135 0.030h0.010l-0.145-0.030zM179.432 673.591c5.853-59.457 55.987-105.93 116.982-105.93 64.944 0 117.578 52.644 117.578 117.562 0 3.353-0.228 6.613-0.481 9.846l-234.078-21.478zM677.837 791.842c15.037 6.97 31.744 10.959 49.413 10.959 17.695 0 34.414-3.991 49.413-10.959h-98.827zM631.356 787.833c7.509 31.114 44.343 52.965 90.082 55.641l0.442 3.373c1.454 11.43 16.76 19.248 33.414 17.137 17.242-2.206 29.637-12.623 28.22-23.748l-0.602-4.643v-0.032c43.218-14.035 73.213-44.339 73.171-76.402l-224.727 28.674zM623.891 772.852l235.72-30.064c2.856-0.362 4.926-2.179 4.674-4.060l-5.193-40.806c-0.257-1.921-2.714-3.151-5.572-2.773l-235.706 30.076c-2.805 0.347-4.916 2.181-4.67 4.086l5.207 40.804c0.238 1.88 2.749 3.108 5.54 2.737zM844.667 673.563c-0.040-0.37-0.079-0.479-0.121 0.030h-0.014l0.135-0.030zM844.535 673.591c-5.851-59.457-55.987-105.93-116.992-105.93-64.932 0-117.562 52.644-117.562 117.562 0 3.353 0.222 6.613 0.465 9.846l234.088-21.478zM543.374 517.804c0 0 105.001 26.309 184.195 26.309 78.69 0 184.142-26.309 184.142-26.309l-26.309-210.451-78.905-52.646v-184.146c0 0-39.716-26.281-78.915-26.281-39.744 0-78.941 26.281-78.941 26.281v184.146l-83.481 89.050-21.785 174.046zM375.394 254.708v-184.146c0 0-39.72-26.281-78.915-26.281-39.746 0-78.943 26.281-78.943 26.281v184.146l-78.931 52.646-26.323 210.451c0 0 104.987 26.309 184.181 26.309 78.69 0 184.156-26.309 184.156-26.309l-21.674-173.282z" />
<glyph unicode="&#xe911;" glyph-name="tabs-social-weedia" d="M656.275 649.76h-409.76c-4.916 0-8.901-2.642-8.901-5.912v-71.003c0-3.266 3.985-5.91 8.901-5.91h409.76c4.898 0 8.921 2.644 8.921 5.91v71.003c0 3.27-4.025 5.912-8.921 5.912zM267.409 524.927c-0.525-5.607-0.812-11.238-0.812-16.966 0-101.883 82.9-184.781 184.787-184.781 101.917 0 184.813 82.898 184.813 184.781 0 5.73-0.293 11.359-0.812 16.966h-367.976zM646.794 676.95c-6.059 54.888-64.255 100.275-141.942 114.852v5.894c0 19.811-24.485 36.579-53.468 36.579-29.963 0-53.434-15.132-53.434-34.42v-8.113c-76.964-14.627-134.859-59.905-141.831-114.793h390.675zM527.938 151.268v131.149c0 6.38 0.374 12.7 1.099 18.957-24.162-9.125-50.33-14.126-77.654-14.126-58.392 0-111.507 22.827-151.017 59.96-73.706-11.7-132.831-26.511-132.831-26.511l28.006-223.88h346.914c-8.982 13.678-14.518 31.714-14.518 54.45zM759.002 437.974c-107.211 0-194.421-69.781-194.421-155.559v-131.149c0-46.375 29.482-51.374 42.166-51.374 2.521 0 5.11 0.166 7.691 0.499l0.39 0.051 0.386 0.109c4.078 1.040 10.464 3.399 17.79 8.693l44.426 32.144c25.899-9.638 53.331-14.536 81.571-14.536 107.203 0 194.421 69.786 194.421 155.563s-87.218 155.559-194.421 155.559zM758.742 171.366c-78.793 0-142.669 49.55-142.669 110.667 0 61.113 63.876 110.657 142.669 110.657s142.673-49.544 142.673-110.657c0-61.117-63.88-110.667-142.673-110.667zM838.723 325.1h-152.596c-7.311 0-13.247-5.924-13.247-13.243 0-7.33 5.934-13.257 13.247-13.257h152.596c7.311 0 13.247 5.926 13.247 13.257 0 7.319-5.936 13.243-13.247 13.243zM782.758 264.831h-96.63c-7.311 0-13.247-5.934-13.247-13.249 0-7.322 5.934-13.255 13.247-13.255h96.63c7.322 0 13.253 5.932 13.253 13.255 0.002 7.313-5.93 13.249-13.253 13.249z" />
<glyph unicode="&#xe912;" glyph-name="alarm_clock" d="M876.213 417.417c0 118.519-60.723 228.075-162.804 294.076l15.659 25.19c32.368-20.838 61.21-46.264 85.891-75.649l6.067-7.221 23.556 64.336 0.158 0.493c8.634 29.365-15.443 63.007-69.672 97.415l23.691 40.090 2.886 5.051-0.63 0.295c0.495 1.832 0.751 3.724 0.751 5.653 0 12.252-10.264 22.207-22.904 22.207-7.053 0-13.67-3.141-17.984-8.44h-0.293l-25.095-42.463c-34.024 17.077-62.809 25.723-85.675 25.723-16.937 0-30.34-4.807-39.815-14.259l-45.585-53.634 9.59-1.418c40.298-5.928 79.157-17.98 115.494-35.816l-15.695-25.279c-50.824 24.61-105.393 37.106-162.351 37.106-56.92 0-111.495-12.478-162.291-37.106l-15.717 25.279c36.446 17.856 75.247 29.888 115.447 35.769l9.602 1.408-45.595 53.67c-9.446 9.472-22.807 14.269-39.768 14.269-22.865 0-51.691-8.655-85.735-25.733l-23.39 39.738-3.633 6.035-0.806-0.729c-4.167 3.755-9.652 5.881-15.52 5.881-12.605 0-22.865-9.955-22.865-22.207 0-0.963 0.059-1.939 0.176-2.894h-1.969l28.43-48.195c-54.213-34.477-78.26-68.099-69.614-97.415l23.675-64.829 6.087 7.221c24.659 29.385 53.553 54.811 85.834 75.649l15.677-25.19c-102.024-65.972-162.703-175.508-162.703-294.076 0-120.032 56.29-224.716 160.231-290.43l-32.211-52.626-4.686-8.117h1.892c-0.149-0.963-0.198-1.939-0.198-2.914 0-12.258 18.674-25.034 31.308-25.034 7.021 0 13.629 3.211 17.972 8.527h0.315l31.078 52.707c49.869-23.536 103.343-35.493 159.003-35.493 55.67 0 109.112 11.957 158.962 35.493l29.486-49.97 1.709-2.739h0.297c4.314-5.316 10.909-8.527 17.883-8.527 12.662 0 31.334 15.558 31.334 27.83 0 0.955-0.077 1.931-0.236 2.906h2.008l-34.19 57.954c103.965 65.803 157.478 170.465 157.478 290.432zM784.816 417.417c0-146.012-122.634-264.863-273.406-264.863-150.69 0-273.343 118.843-273.343 264.863 0 146.103 122.615 264.984 273.343 264.984 150.791 0 273.406-118.883 273.406-264.984zM690.937 445.552l-164.046-18.533 17.578 159.643c0.267 2.551-2.163 4.569-4.874 4.569h-56.14l-1.961-0.333c-1.812-0.671-3.248-2.070-2.973-5.074l17.903-162.252-0.059-0.008c0 0 0.965-9.927 8.154-17.125 7.18-7.2 19.202-8.333 19.202-8.333v0l168.063-18.511c2.541-0.267 4.569 2.167 4.569 4.863v56.152l-0.357 1.981c-0.669 1.789-2.048 3.226-5.061 2.961zM715.637 442.765c-3.547 0-6.453-2.874-6.453-6.421v-48.843c0-3.567 2.906-6.441 6.453-6.441 3.524 0 6.417 2.874 6.417 6.441v48.843c0 3.547-2.894 6.421-6.417 6.421zM741.358 433.961c-3.567 0-6.421-3.052-6.421-6.823v-30.676c0-3.771 2.854-6.831 6.421-6.831 3.543 0 6.437 3.060 6.437 6.831v30.676c0 3.771-2.894 6.823-6.437 6.823zM487.737 604.090h48.827c3.583 0 6.449 2.876 6.449 6.421 0 3.526-2.866 6.421-6.449 6.421h-48.827c-3.545 0-6.439-2.896-6.439-6.421 0-3.545 2.894-6.421 6.439-6.421zM496.925 629.832h30.676c3.771 0 6.811 2.856 6.811 6.394 0 3.555-3.040 6.451-6.811 6.451h-30.676c-3.771 0-6.825-2.896-6.825-6.451 0-3.537 3.054-6.394 6.825-6.394z" />
<glyph unicode="&#xe913;" glyph-name="most_recent_user" d="M879.119 417.413c0 118.519-60.723 228.075-162.792 294.076l15.655 25.19c32.372-20.838 61.214-46.264 85.891-75.649l6.059-7.221 23.556 64.336 0.166 0.493c8.652 29.365-15.445 63.007-69.672 97.415l23.699 40.090 2.88 5.051-0.64 0.295c0.487 1.832 0.759 3.724 0.759 5.653 0 12.252-10.272 22.207-22.916 22.207-7.029 0-13.659-3.141-17.974-8.44h-0.299l-25.083-42.463c-34.030 17.077-62.821 25.723-85.685 25.723-16.919 0-30.342-4.807-39.805-14.259l-45.597-53.632 9.596-1.418c40.316-5.928 79.173-17.98 115.49-35.816l-15.697-25.279c-50.82 24.61-105.391 37.106-162.341 37.106-56.93 0-111.497-12.478-162.291-37.106l-15.718 25.279c36.436 17.856 75.241 29.888 115.435 35.769l9.622 1.408-45.601 53.67c-9.45 9.472-22.823 14.269-39.766 14.269-22.883 0-51.691-8.655-85.751-25.733l-23.388 39.738-3.629 6.035-0.792-0.729c-4.165 3.755-9.66 5.881-15.54 5.881-12.605 0-22.867-9.955-22.867-22.207 0-0.963 0.059-1.939 0.176-2.894h-1.965l28.434-48.195c-54.226-34.481-78.274-68.103-69.622-97.417l23.675-64.829 6.085 7.221c24.679 29.385 53.553 54.811 85.832 75.649l15.683-25.19c-102.028-65.972-162.709-175.508-162.709-294.076 0-120.032 56.288-224.716 160.243-290.43l-32.221-52.626-4.688-8.117h1.892c-0.123-0.963-0.198-1.939-0.198-2.914 0-12.258 18.676-25.034 31.3-25.034 7.027 0 13.645 3.211 17.982 8.527h0.315l31.094 52.707c49.845-23.536 103.323-35.493 159.001-35.493 55.66 0 109.095 11.957 158.944 35.493l29.494-49.97 1.713-2.739h0.293c4.304-5.316 10.907-8.527 17.885-8.527 12.652 0 31.324 15.558 31.324 27.83 0 0.955-0.085 1.931-0.228 2.906h1.997l-34.188 57.954c103.977 65.803 157.492 170.465 157.492 290.432zM787.729 417.413c0-146.012-122.65-264.863-273.418-264.863-150.686 0-273.331 118.843-273.331 264.863 0 146.103 122.615 264.984 273.331 264.984 150.809 0 273.418-118.883 273.418-264.984zM646.847 515.554h-269.952c-3.25 0-5.863-1.753-5.863-3.9v-46.777c0-2.145 2.614-3.888 5.863-3.888h269.952c3.221 0 5.875 1.743 5.875 3.888v46.777c0 2.149-2.654 3.9-5.875 3.9zM640.604 533.467c-3.997 36.173-42.344 66.069-93.521 75.669v3.87c0 13.060-16.134 24.109-35.224 24.109-19.745 0-35.204-9.967-35.204-22.679v-5.348c-50.701-9.63-88.836-39.449-93.436-75.622h257.384zM615.367 241.041v55.474h-30.696c-21.439-12.488-46.264-19.787-72.811-19.787-38.47 0-73.469 15.049-99.486 39.52-48.564-7.711-87.517-17.481-87.517-17.481l18.446-147.498h337.128l11.236 89.771h-76.299zM559.861 411.378h55.504v21.93h-224.717c-0.345-3.682-0.537-7.404-0.537-11.169 0-67.123 54.615-121.737 121.747-121.737 17.032 0 33.261 3.543 48.007 9.907l-0.004 101.069zM593.892 377.342h55.498v55.779l46.797-0.012-0.026-55.767 55.797-0.008-0.004-46.777-55.767-0.012v-55.49h-46.797v55.49h-55.498v46.797z" />
<glyph unicode="&#xe914;" glyph-name="calendar_check" d="M729.551 815.131v-110.382c0-25.077-20.399-45.452-45.45-45.452h-38.692c-25.051 0-45.446 20.375-45.446 45.452v119.869h-172.692v-118.719c0-25.051-20.371-45.45-45.45-45.45h-38.664c-25.051 0-45.474 20.399-45.474 45.45v109.233c-89.601-27.343-154.622-110.849-154.622-209.455v-381.457c0-120.743 97.508-218.886 218.193-218.948h304.702c120.703 0.061 218.209 98.205 218.209 218.948v381.455c0 98.595-65.021 182.114-154.614 209.455zM770.995 224.221c-0.151-58.55-47.253-105.613-105.036-105.726h-304.708c-57.768 0.113-104.866 47.175-105.016 105.726v264.137c0.149 58.566 47.247 105.63 105.016 105.745h304.706c57.784-0.115 104.886-47.177 105.036-105.745v-264.137zM381.819 881.251h-38.664c-3.482 0-6.332-2.862-6.332-6.342v-169.011c0-3.504 2.85-6.356 6.332-6.356h38.664c3.478 0 6.334 2.852 6.334 6.356v168.984c0 3.508-2.856 6.37-6.334 6.37zM684.101 880.065h-38.692c-3.478 0-6.332-2.842-6.332-6.32v-168.994c0-3.492 2.854-6.36 6.332-6.36h38.692c3.478 0 6.356 2.868 6.356 6.36v168.992c0 3.48-2.88 6.322-6.356 6.322zM651.787 479.053c-1.044 1.064-2.448 1.575-3.827 1.575-1.4 0-2.805-0.511-3.852-1.575l-158.472-158.492-75.36 75.374c-1.050 1.040-2.45 1.551-3.829 1.551-1.4 0-2.779-0.511-3.829-1.551l-23.427-23.451c-2.105-2.090-2.105-5.556 0-7.679l78.913-78.929c0.046-0.073 0.125-0.224 0.198-0.309l23.451-23.427c1.052-1.040 2.43-1.602 3.803-1.602 1.43 0 2.807 0.561 3.833 1.602l185.853 185.802c2.101 2.090 2.101 5.568 0 7.683l-23.455 23.429z" />
<glyph unicode="&#xe915;" glyph-name="calendar_week" d="M729.548 815.129v-110.382c0-25.077-20.407-45.448-45.446-45.448h-38.692c-25.063 0-45.446 20.371-45.446 45.448v119.869h-172.69v-118.719c0-25.053-20.389-45.448-45.452-45.448h-38.678c-25.041 0-45.462 20.395-45.462 45.448v109.231c-89.597-27.343-154.618-110.848-154.618-209.453v-381.457c0-120.743 97.496-218.89 218.187-218.952h304.706c120.703 0.061 218.209 98.209 218.209 218.952v381.457c0 98.595-65.017 182.112-154.618 209.453zM770.983 224.221c-0.139-58.55-47.249-105.613-105.024-105.729h-304.712c-57.762 0.117-104.864 47.179-105.016 105.729v264.139c0.151 58.564 47.253 105.628 105.016 105.741h304.71c57.776-0.113 104.886-47.175 105.024-105.741v-264.139zM381.819 881.251h-38.678c-3.466 0-6.318-2.866-6.318-6.342v-169.011c0-3.504 2.852-6.358 6.318-6.358h38.678c3.468 0 6.332 2.854 6.332 6.358v168.984c0 3.504-2.864 6.37-6.332 6.37zM684.101 880.063h-38.692c-3.478 0-6.332-2.84-6.332-6.318v-168.996c0-3.494 2.854-6.358 6.332-6.358h38.692c3.478 0 6.36 2.864 6.36 6.358v168.994c0 3.48-2.884 6.32-6.36 6.32zM732.303 389.466c0-15.582-11.86-28.22-26.503-28.22h-387.587c-14.639 0-26.501 12.639-26.501 28.22v28.228c0 15.594 11.862 28.232 26.501 28.232h387.587c14.643 0 26.503-12.639 26.503-28.232v-28.228z" />
<glyph unicode="&#xe916;" glyph-name="calendar_today" d="M729.551 815.129v-110.382c0-25.077-20.411-45.448-45.45-45.448h-38.692c-25.063 0-45.448 20.371-45.448 45.448v119.869h-172.69v-118.719c0-25.053-20.385-45.448-45.448-45.448h-38.68c-25.041 0-45.464 20.395-45.464 45.448v109.231c-89.595-27.343-154.618-110.848-154.618-209.453v-381.457c0-120.743 97.494-218.89 218.189-218.952h304.706c120.705 0.061 218.213 98.209 218.213 218.952v381.457c0 98.595-65.021 182.112-154.618 209.453zM770.983 224.221c-0.137-58.55-47.249-105.613-105.024-105.729h-304.708c-57.762 0.117-104.864 47.179-105.016 105.729v264.139c0.151 58.564 47.253 105.628 105.016 105.741h304.706c57.776-0.113 104.888-47.175 105.024-105.741v-264.139zM381.821 881.251h-38.68c-3.464 0-6.318-2.866-6.318-6.342v-169.011c0-3.504 2.854-6.358 6.318-6.358h38.68c3.464 0 6.33 2.854 6.33 6.358v168.984c0.002 3.504-2.866 6.37-6.33 6.37zM684.101 880.063h-38.692c-3.478 0-6.332-2.84-6.332-6.318v-168.996c0-3.494 2.854-6.358 6.332-6.358h38.692c3.48 0 6.358 2.864 6.358 6.358v168.994c0 3.48-2.88 6.32-6.358 6.32zM505.393 370.146c0-14.158-11.474-25.628-25.626-25.628h-161.715c-14.154 0-25.626 11.47-25.626 25.628v124.821c0 0 1.565 23.726 20.609 42.772 19.046 19.046 41.622 19.747 41.622 19.747h125.112c14.154 0 25.626-11.476 25.626-25.628v-161.713z" />
<glyph unicode="&#xe917;" glyph-name="leaf" d="M519.172 187.823c104.696-150.879 269.69-147.062 269.69-147.062s-43.388 84.021-143.459 130.783c198.399-15.051 333.412 95.555 333.412 95.555s-141.312 64.973-312.371 14.53v0c221.764 154.489 265.812 388.153 265.812 388.153s-226.407-61.969-355.57-292.713c75.406 301.519-67.218 535.849-67.218 535.849s-145.059-226.009-75.172-519.719v0c-130.436 217.52-346.223 276.583-346.223 276.583s44.357-235.314 268.143-389.778c-173.45 53.438-317.761-12.906-317.761-12.906s137.654-112.771 339.227-95.091v0c-100.804-46.639-144.473-131.248-144.473-131.248s164.711-3.817 269.433 146.701l-20.854-147.032h67.134l-29.751 147.395z" />
<glyph unicode="&#xe918;" glyph-name="tabs-stash-leaf" d="M519.164 195.741c104.7-150.879 269.69-147.062 269.69-147.062s-43.386 84.021-143.455 130.783c198.395-15.051 333.412 95.555 333.412 95.555s-141.314 64.973-312.373 14.53v0c221.764 154.489 265.812 388.153 265.812 388.153s-226.409-61.969-355.57-292.713c75.408 301.519-67.216 535.851-67.216 535.851s-145.059-226.009-75.172-519.719v0c-130.438 217.518-346.225 276.581-346.225 276.581s44.355-235.314 268.145-389.778c-173.45 53.438-317.761-12.906-317.761-12.906s137.652-112.771 339.227-95.091v0c-100.806-46.639-144.475-131.248-144.475-131.248s164.711-3.817 269.435 146.701l-20.856-147.032h67.136l-29.755 147.395z" />
<glyph unicode="&#xe919;" glyph-name="leaf-plus" d="M642.793 78.839l-0.012 134.263h90.779l-0.006 83.025c-21.658-3.048-44.111-7.729-67.119-14.51 221.764 154.487 265.812 388.151 265.812 388.151s-226.409-61.969-355.57-292.713c75.412 301.519-67.214 535.851-67.214 535.851s-145.059-226.007-75.172-519.717c-130.438 217.518-346.225 276.579-346.225 276.579s44.357-235.312 268.145-389.778c-173.45 53.438-317.761-12.906-317.761-12.906s137.652-112.773 339.227-95.093c-100.806-46.639-144.475-131.25-144.475-131.25s164.711-3.815 269.435 146.703l-20.856-147.032h67.136l-29.751 147.393c36.993-53.309 81.512-87.29 123.625-108.966zM694.282 161.605h90.779l-0.008 91.235h76.566l-0.018-91.235 91.253-0.004-0.004-76.552h-91.235v-90.778l-76.554 0.016-0.008 90.762h-90.764l-0.008 76.556z" />
</font>
</defs>
</svg>
